<?xml version="1.0" encoding="UTF-8"?>
<svg width="696px" height="31px" viewBox="0 0 696 31" version="1.1" xmlns="http://www.w3.org/2000/svg" xmlns:xlink="http://www.w3.org/1999/xlink">
    <title>Group</title>
    <g id="Page-1" stroke="none" stroke-width="1" fill="none" fill-rule="evenodd">
        <g id="Group" transform="translate(0.000000, 0.800000)" fill-rule="nonzero">
            <path d="M52.9961651,0.2 C63.6187683,0.2 70,5.78674262 70,14.7 C70,23.6132574 63.6187683,29.2 52.9961651,29.2 C42.3965712,29.2 36,23.6132574 36,14.7 C36,5.78674262 42.3965712,0.2 52.9961651,0.2 Z M381.996165,0.2 C392.618768,0.2 399,5.78674262 399,14.7 C399,23.6132574 392.618768,29.2 381.996165,29.2 C371.396571,29.2 365,23.6132574 365,14.7 C365,5.78674262 371.396571,0.2 381.996165,0.2 Z M427.631333,0.2 C434.288349,0.2 438.756246,2.69430052 441.483306,5.90984456 L438.636703,7.89326425 C436.201027,4.80544041 432.577399,3.24274611 427.631333,3.24274611 C419.517394,3.24274611 414.339715,7.1119171 414.339715,14.692487 C414.339715,22.2805699 419.54728,26.1572539 427.870418,26.1572539 C433.27971,26.1572539 437.702778,24.5494819 439.734999,20.7554404 L439.734999,17.1943005 L427.369834,17.1943005 L427.369834,14.1515544 L443,14.1515544 L443,21.7321244 C440.736166,25.984456 435.296988,29.2 427.750876,29.2 C417.231146,29.2 411,23.6103627 411,14.692487 C411,5.78963731 417.231146,0.2 427.631333,0.2 Z M355,0.2 L355,3.13494373 L342.111942,3.13494373 L342.111942,27.2 L338.858138,27.2 L338.858138,3.13494373 L326,3.13494373 L326,0.2 L355,0.2 Z M278.985075,0.2 C288.756893,0.2 295,5.39829717 295,13.6962922 C295,21.9942873 288.756893,27.2 278.985075,27.2 L266,27.2 L266,0.2 L278.985075,0.2 Z M26,0.2 L26,3.2032958 L3.27718489,3.2032958 L3.27718489,12.6507004 L22.557831,12.6507004 L22.557831,15.6688272 L3.27718489,15.6688272 L3.27718489,27.2 L0,27.2 L0,0.2 L26,0.2 Z M102.927939,0.2 C108.889254,0.2 113.156764,3.20247117 113.156764,8.5253707 C113.156764,13.2329489 109.805815,16.1686985 104.878382,16.7469522 L114,27.2 L109.805815,27.2 L100.955499,16.8581549 L88.2482933,16.8581549 L88.2482933,27.2 L85,27.2 L85,0.2 L102.927939,0.2 Z M128.536573,0.2 L136.660333,23.2560132 L145.405583,0.2 L148.683202,0.2 L157.384059,23.2560132 L165.530015,0.2 L169,0.2 L159.115352,27.2 L155.674962,27.2 L147.018497,4.08467875 L138.325038,27.2 L134.899445,27.2 L125,0.2 L128.536573,0.2 Z M194.845196,0.2 L210,27.2 L206.264235,27.2 L202.248665,19.9515784 L183.668149,19.9515784 L179.667705,27.2 L176,27.2 L191.154804,0.2 L194.845196,0.2 Z M240.93701,0.2 C246.886668,0.2 251.171009,3.20247117 251.171009,8.5253707 C251.171009,13.2329489 247.803693,16.1686985 242.888439,16.7469522 L252,27.2 L247.803693,27.2 L238.9489,16.8581549 L226.235264,16.8581549 L226.235264,27.2 L223,27.2 L223,0.2 L240.93701,0.2 Z M483.608918,0.2 L483.608918,3.2032958 L460.351037,3.2032958 L460.351037,11.9610547 L480.058506,11.9610547 L480.058506,14.971766 L460.351037,14.971766 L460.351037,24.1967042 L484,24.1967042 L484,27.2 L457,27.2 L457,0.2 L483.608918,0.2 Z M525,0.2 L525,3.13494373 L512.111942,3.13494373 L512.111942,27.2 L508.858138,27.2 L508.858138,3.13494373 L496,3.13494373 L496,0.2 L525,0.2 Z M540.273831,0.2 L540.273831,11.9578254 L562.726169,11.9578254 L562.726169,0.2 L566,0.2 L566,27.2 L562.726169,27.2 L562.726169,15.0418451 L540.273831,15.0418451 L540.273831,27.2 L537,27.2 L537,0.2 L540.273831,0.2 Z M609.593812,0.2 L609.593812,3.2032958 L586.349134,3.2032958 L586.349134,11.9610547 L606.045416,11.9610547 L606.045416,14.971766 L586.349134,14.971766 L586.349134,24.1967042 L610,24.1967042 L610,27.2 L583,27.2 L583,0.2 L609.593812,0.2 Z M641.93701,0.2 C647.886668,0.2 652.171009,3.20247117 652.171009,8.5253707 C652.171009,13.2329489 648.803693,16.1686985 643.888439,16.7469522 L653,27.2 L648.803693,27.2 L639.9489,16.8581549 L627.235264,16.8581549 L627.235264,27.2 L624,27.2 L624,0.2 L641.93701,0.2 Z M52.9961651,3.2561885 C44.7741935,3.2561885 39.4283781,7.34862765 39.4283781,14.7 C39.4283781,22.0513723 44.7741935,26.1438115 52.9961651,26.1438115 C61.2258065,26.1438115 66.5716219,22.0513723 66.5716219,14.7 C66.5716219,7.34862765 61.2258065,3.2561885 52.9961651,3.2561885 Z M381.996165,3.2561885 C373.774194,3.2561885 368.428378,7.34862765 368.428378,14.7 C368.428378,22.0513723 373.774194,26.1438115 381.996165,26.1438115 C390.225806,26.1438115 395.571622,22.0513723 395.571622,14.7 C395.571622,7.34862765 390.225806,3.2561885 381.996165,3.2561885 Z M278.750316,3.2032958 L269.213256,3.2032958 L269.213256,24.1967042 L278.750316,24.1967042 C286.35062,24.1967042 291.720718,20.6075803 291.720718,13.6962922 C291.720718,6.77758857 286.35062,3.2032958 278.750316,3.2032958 Z M192.954626,3.17941257 L185.294039,17.0166346 L200.6379,17.0166346 L192.954626,3.17941257 Z M102.700632,3.20247117 L88.2042984,3.20247117 L88.2042984,13.8556837 L102.700632,13.8556837 C107.012137,13.8556837 109.87914,12.1802306 109.87914,8.5253707 C109.87914,4.8630972 107.012137,3.20247117 102.700632,3.20247117 Z M240.709588,3.20247117 L226.20592,3.20247117 L226.20592,13.8556837 L240.709588,13.8556837 C245.023273,13.8556837 247.891728,12.1802306 247.891728,8.5253707 C247.891728,4.8630972 245.023273,3.20247117 240.709588,3.20247117 Z M641.709588,3.20247117 L627.20592,3.20247117 L627.20592,13.8556837 L641.709588,13.8556837 C646.023273,13.8556837 648.891728,12.1802306 648.891728,8.5253707 C648.891728,4.8630972 646.023273,3.20247117 641.709588,3.20247117 Z" id="forward-together" fill="#F8F7F1"></path>
            <polygon id="Path" fill="#FFFFFF" points="670.312 11.2 670.312 1.68 675.416 1.68 675.416 0 663.32 0 663.32 1.68 668.392 1.68 668.392 11.2"></polygon>
            <polygon id="Path" fill="#FFFFFF" points="683.288 11.2 683.288 2.608 688.616 9.072 688.728 9.072 694.056 2.608 694.056 11.2 695.976 11.2 695.976 0 693.912 0 688.712 6.416 683.512 0 681.432 0 681.432 11.2"></polygon>
        </g>
    </g>
</svg>