<?xml version="1.0" encoding="UTF-8"?>
<svg width="653px" height="29px" viewBox="0 0 653 29" version="1.1" xmlns="http://www.w3.org/2000/svg" xmlns:xlink="http://www.w3.org/1999/xlink">
    <title>forward-together</title>
    <g id="🗄-Symbols" stroke="none" stroke-width="1" fill="none" fill-rule="evenodd">
        <g id="Logos-/-Forward-Together-(Colour)" transform="translate(0.000000, -2.000000)" fill="#F8F7F1">
            <path d="M52.9961651,2 C63.6187683,2 70,7.58674262 70,16.5 C70,25.4132574 63.6187683,31 52.9961651,31 C42.3965712,31 36,25.4132574 36,16.5 C36,7.58674262 42.3965712,2 52.9961651,2 Z M381.996165,2 C392.618768,2 399,7.58674262 399,16.5 C399,25.4132574 392.618768,31 381.996165,31 C371.396571,31 365,25.4132574 365,16.5 C365,7.58674262 371.396571,2 381.996165,2 Z M427.631333,2 C434.288349,2 438.756246,4.49430052 441.483306,7.70984456 L438.636703,9.69326425 C436.201027,6.60544041 432.577399,5.04274611 427.631333,5.04274611 C419.517394,5.04274611 414.339715,8.9119171 414.339715,16.492487 C414.339715,24.0805699 419.54728,27.9572539 427.870418,27.9572539 C433.27971,27.9572539 437.702778,26.3494819 439.734999,22.5554404 L439.734999,18.9943005 L427.369834,18.9943005 L427.369834,15.9515544 L443,15.9515544 L443,23.5321244 C440.736166,27.784456 435.296988,31 427.750876,31 C417.231146,31 411,25.4103627 411,16.492487 C411,7.58963731 417.231146,2 427.631333,2 Z M355,2 L355,4.93494373 L342.111942,4.93494373 L342.111942,29 L338.858138,29 L338.858138,4.93494373 L326,4.93494373 L326,2 L355,2 Z M278.985075,2 C288.756893,2 295,7.19829717 295,15.4962922 C295,23.7942873 288.756893,29 278.985075,29 L266,29 L266,2 L278.985075,2 Z M26,2 L26,5.0032958 L3.27718489,5.0032958 L3.27718489,14.4507004 L22.557831,14.4507004 L22.557831,17.4688272 L3.27718489,17.4688272 L3.27718489,29 L0,29 L0,2 L26,2 Z M102.927939,2 C108.889254,2 113.156764,5.00247117 113.156764,10.3253707 C113.156764,15.0329489 109.805815,17.9686985 104.878382,18.5469522 L114,29 L109.805815,29 L100.955499,18.6581549 L88.2482933,18.6581549 L88.2482933,29 L85,29 L85,2 L102.927939,2 Z M128.536573,2 L136.660333,25.0560132 L145.405583,2 L148.683202,2 L157.384059,25.0560132 L165.530015,2 L169,2 L159.115352,29 L155.674962,29 L147.018497,5.88467875 L138.325038,29 L134.899445,29 L125,2 L128.536573,2 Z M194.845196,2 L210,29 L206.264235,29 L202.248665,21.7515784 L183.668149,21.7515784 L179.667705,29 L176,29 L191.154804,2 L194.845196,2 Z M240.93701,2 C246.886668,2 251.171009,5.00247117 251.171009,10.3253707 C251.171009,15.0329489 247.803693,17.9686985 242.888439,18.5469522 L252,29 L247.803693,29 L238.9489,18.6581549 L226.235264,18.6581549 L226.235264,29 L223,29 L223,2 L240.93701,2 Z M483.608918,2 L483.608918,5.0032958 L460.351037,5.0032958 L460.351037,13.7610547 L480.058506,13.7610547 L480.058506,16.771766 L460.351037,16.771766 L460.351037,25.9967042 L484,25.9967042 L484,29 L457,29 L457,2 L483.608918,2 Z M525,2 L525,4.93494373 L512.111942,4.93494373 L512.111942,29 L508.858138,29 L508.858138,4.93494373 L496,4.93494373 L496,2 L525,2 Z M540.273831,2 L540.273831,13.7578254 L562.726169,13.7578254 L562.726169,2 L566,2 L566,29 L562.726169,29 L562.726169,16.8418451 L540.273831,16.8418451 L540.273831,29 L537,29 L537,2 L540.273831,2 Z M609.593812,2 L609.593812,5.0032958 L586.349134,5.0032958 L586.349134,13.7610547 L606.045416,13.7610547 L606.045416,16.771766 L586.349134,16.771766 L586.349134,25.9967042 L610,25.9967042 L610,29 L583,29 L583,2 L609.593812,2 Z M641.93701,2 C647.886668,2 652.171009,5.00247117 652.171009,10.3253707 C652.171009,15.0329489 648.803693,17.9686985 643.888439,18.5469522 L653,29 L648.803693,29 L639.9489,18.6581549 L627.235264,18.6581549 L627.235264,29 L624,29 L624,2 L641.93701,2 Z M52.9961651,5.0561885 C44.7741935,5.0561885 39.4283781,9.14862765 39.4283781,16.5 C39.4283781,23.8513723 44.7741935,27.9438115 52.9961651,27.9438115 C61.2258065,27.9438115 66.5716219,23.8513723 66.5716219,16.5 C66.5716219,9.14862765 61.2258065,5.0561885 52.9961651,5.0561885 Z M381.996165,5.0561885 C373.774194,5.0561885 368.428378,9.14862765 368.428378,16.5 C368.428378,23.8513723 373.774194,27.9438115 381.996165,27.9438115 C390.225806,27.9438115 395.571622,23.8513723 395.571622,16.5 C395.571622,9.14862765 390.225806,5.0561885 381.996165,5.0561885 Z M278.750316,5.0032958 L269.213256,5.0032958 L269.213256,25.9967042 L278.750316,25.9967042 C286.35062,25.9967042 291.720718,22.4075803 291.720718,15.4962922 C291.720718,8.57758857 286.35062,5.0032958 278.750316,5.0032958 Z M192.954626,4.97941257 L185.294039,18.8166346 L200.6379,18.8166346 L192.954626,4.97941257 Z M102.700632,5.00247117 L88.2042984,5.00247117 L88.2042984,15.6556837 L102.700632,15.6556837 C107.012137,15.6556837 109.87914,13.9802306 109.87914,10.3253707 C109.87914,6.6630972 107.012137,5.00247117 102.700632,5.00247117 Z M240.709588,5.00247117 L226.20592,5.00247117 L226.20592,15.6556837 L240.709588,15.6556837 C245.023273,15.6556837 247.891728,13.9802306 247.891728,10.3253707 C247.891728,6.6630972 245.023273,5.00247117 240.709588,5.00247117 Z M641.709588,5.00247117 L627.20592,5.00247117 L627.20592,15.6556837 L641.709588,15.6556837 C646.023273,15.6556837 648.891728,13.9802306 648.891728,10.3253707 C648.891728,6.6630972 646.023273,5.00247117 641.709588,5.00247117 Z" id="forward-together"></path>
        </g>
    </g>
</svg>