<?xml version="1.0" encoding="UTF-8"?>
<svg width="72px" height="32px" viewBox="0 0 72 32" version="1.1" xmlns="http://www.w3.org/2000/svg" xmlns:xlink="http://www.w3.org/1999/xlink">
    <title>gold-rhino-inverted</title>
    <g id="Page-1" stroke="none" stroke-width="1" fill="none" fill-rule="evenodd">
        <g id="gold-rhino-inverted" fill="#B28F64" fill-rule="nonzero">
            <path d="M52.1293272,7.12984142 C52.2761468,5.98098355 53.1718945,4.93301896 53.2445627,5.11271212 C52.7381094,6.77708314 53.2453042,9.0696438 53.9727285,10.3584266 C54.3353283,8.6167286 54.9633898,8.149821 54.4925291,7.15193484 C56.4367761,8.492269 55.2451647,10.7973492 57.1271247,11.9182221 C58.7606778,12.8910691 60.2318395,12.3549354 61.8320246,12.9470391 C62.0833975,11.9498894 62.7885763,12.2591972 64.4035916,12.8225795 C65.6522994,13.2570834 65.56925,12.5368379 65.3764566,12.3858662 C65.0450003,12.1259003 64.6594135,11.8600428 64.8047501,11.570619 C66.1491131,11.0661525 66.2188153,11.689187 66.2484759,11.9167492 C66.3582198,12.7968038 65.9496461,14.2100463 64.7446875,13.7954264 C64.2374927,14.7638547 62.9754376,14.3838479 62.5446185,14.3691189 C56.9306238,15.7573222 56.974373,12.6554059 54.4799234,13.4397224 C53.3898993,15.5098759 53.2052625,15.2395997 52.3287942,15.6748401 C51.4523259,16.1100805 50.8932251,16.6336945 49.6437757,17.6846049 C48.460321,18.6810182 47.8211368,19.7797976 46.7021937,20.7084578 C47.8211368,20.6311308 48.4091566,19.6899511 48.9059703,19.1972678 C48.5544931,21.3594772 47.006214,22.4221707 46.2847219,23.3780794 C45.5624883,24.3347245 44.9210795,28.783603 45.3185305,29.0251577 C45.8914624,29.5577427 46.6581719,30.1719566 46.6905039,30.7504289 C51.1956423,30.9265047 55.7850634,31.1781127 60.4958182,31.5069117 C56.2396375,31.5069117 18.5053292,31.4920587 1.4783217,31.5060205 L0.4621858,31.5069117 C5.1706963,31.1780926 9.8128895,30.9218428 14.4367185,30.7416299 C14.4488615,30.2789029 14.9458961,29.6463384 14.900185,28.9949634 C14.8594018,28.4308447 14.3143898,27.8998662 13.3066736,27.1457441 C12.6000117,26.4733676 12.9181208,25.9004116 13.5454408,24.3575544 C14.1727608,22.8146972 14.1431003,21.9935584 13.8242497,21.2416456 C13.5061406,20.4904693 11.9526709,19.1059483 11.2749281,14.5966812 C10.8544902,15.3736331 10.7996182,16.9098623 10.6683704,18.4438821 C10.5845795,19.4145198 10.5482453,22.0038687 8.5172413,22.0429004 C9.3136262,21.2519559 8.2495551,20.2518604 9.7125602,18.3238412 C9.9980427,17.032849 10.3146687,13.3889075 10.9167773,11.7871345 C11.5196273,10.1875708 13.1472483,8.4657569 15.5371447,6.76456353 C14.2528442,7.98043812 13.0671649,10.9070799 13.8027458,12.6531966 C14.6517782,11.1434795 15.8567368,10.4526919 16.9378627,10.248696 C15.3576985,15.682941 18.354894,16.3472165 17.3190004,20.7762109 C22.3375602,16.9798248 19.7296591,15.5540627 19.2810437,12.5198996 C19.154245,11.6626749 18.8027678,10.1463298 19.7585781,10.32455 C20.7143883,10.5012974 20.3562375,11.2443728 20.5653442,12.78723 C20.8189416,14.6578063 22.1240045,17.3539401 23.4527957,17.8900737 C22.2522862,16.2448503 22.0290908,14.2402406 21.7977388,12.5773425 C24.2499222,15.4369676 32.6690606,18.7369882 37.0699401,16.5828797 C37.8818968,14.7005202 38.9348452,14.3720647 40.1976418,12.3402065 C40.4289939,12.9301008 38.4283919,16.2286485 38.9066677,19.0168382 C39.9225405,14.389003 41.9268501,13.9714373 42.9286341,11.0470049 C44.0787208,11.786398 43.5982204,14.5753242 43.9244861,15.5165039 C44.4524433,15.9009294 45.7271041,16.060002 47.061086,16.0504282 C45.8361065,17.1779291 42.120385,15.9650003 41.0570554,18.6810182 C42.2123326,17.6131695 45.716723,17.3362653 46.5531496,17.4931286 C46.9721044,17.5734014 47.4296179,17.6522012 47.947194,17.9291054 C48.3053448,18.1213182 48.5048118,17.4150652 48.2660446,16.6638889 C49.8180312,14.3691189 50.6952411,12.3917578 49.4205803,10.4129237 C48.146661,8.436299 46.9913838,7.32868221 46.2743407,5.86315197 C48.5841536,8.1586584 51.5324093,8.1586584 52.4014625,12.1251638 L52.401,12.123 L52.398866,11.7940217 C52.3584574,9.6866964 51.8751188,9.5211078 52.0914821,7.45456097 L52.1293272,7.12984142 Z M43.2979076,28.8366272 C43.51962,29.0575614 43.6745962,29.3440394 43.7747005,29.5730746 C43.3231645,29.6555252 42.7874631,30.2791789 42.78774,30.6154205 C43.4829639,30.6346463 44.1787585,30.6573329 44.876393,30.6818065 C44.7856314,30.4227158 44.6758175,30.1655728 44.5310437,29.9641281 L44.5310437,29.9641281 C44.5325267,29.9641281 44.4324225,29.280705 43.2979076,28.8366272 Z M17.1435703,30.0814428 L17.0253612,30.0826961 C16.7480928,30.1132933 16.4744697,30.5054792 16.36916,30.6735495 C16.8275089,30.6549483 17.2844549,30.6399725 17.7413329,30.6257492 C17.6739972,30.4594993 17.4569895,30.0353936 17.0253612,30.0826961 L17.1435703,30.0814428 Z M18.7879376,29.9493992 C18.4197815,29.9698583 18.240128,30.3804418 18.1672324,30.6149749 C18.6556875,30.5980003 19.1440693,30.5841547 19.6324468,30.5711744 C19.5222186,30.3807984 19.2123972,29.9261407 18.7879376,29.9493992 Z M41.5449709,29.6990071 C41.1591681,29.6652169 40.634433,30.2208908 40.5759894,30.5537462 C41.1692048,30.5676583 41.7639569,30.583691 42.3599346,30.6010342 C42.1936325,30.1516901 41.9626899,29.7345669 41.5449709,29.6990071 Z M22.0587513,19.1354062 C21.1029411,21.3594772 19.49979,21.9051847 19.071937,22.7152768 C18.7782979,23.2712945 18.1650667,24.3222049 17.9174013,25.6824232 C17.7765139,26.4505378 17.2745096,27.5169135 17.8321273,28.3476262 C17.9344561,28.5832893 18.0382679,28.7600367 18.3267165,29.0479876 C18.2926069,28.9920176 18.2607218,28.9323654 18.2362519,28.8668216 C17.9974847,28.2327404 18.3652752,25.0395046 19.7585781,23.2005956 C19.0422765,25.454861 19.4011688,27.0964021 19.4011688,27.2149701 C19.4011688,27.3335382 19.6799777,28.7563544 20.7952132,29.3506675 C21.4616992,29.7058402 21.7582173,30.1877892 21.8889327,30.5181372 C27.6019134,30.3968477 33.327119,30.3955631 39.1545252,30.5201109 C39.0813625,29.5043609 39.994525,28.9106291 39.9017782,28.2135927 C39.7423529,27.0050826 39.7030527,26.3547996 39.5836691,25.2471828 C39.4383326,23.9061122 39.7030527,22.992181 39.663011,22.4781407 C39.4242438,21.9243323 39.3842021,21.4890919 39.2648185,20.2629071 C38.7872842,21.4102921 38.776903,21.9935584 38.7872842,22.8146972 C37.462942,22.9936539 36.9290526,23.2455189 32.7328307,23.7831255 C25.9427963,23.9900672 23.6804402,20.964005 22.0587513,19.1354062 Z M46.1534741,18.6147379 C45.4779558,18.5418296 44.5888817,18.4630298 44.3879317,18.9726513 C44.1869817,19.4822729 44.3323182,20.4035685 43.5559541,22.607019 C43.3728004,23.1269509 42.2323535,25.6551746 42.8196317,28.0950247 C42.8997151,26.7281784 43.3327587,24.4010048 44.5191795,23.0930743 C45.9554901,21.5097125 46.1534741,18.6147379 46.1534741,18.6147379 Z M71.211793,0.05361337 C70.204818,4.74404657 67.8861073,7.45711863 66.9147253,8.5271766 C66.5602821,8.9182302 66.1620896,9.3998667 66.3504339,10.5516704 C66.0360324,10.2408896 65.6912289,9.4933956 65.7535159,8.9329591 C65.1328696,7.86216467 63.9983547,6.94234193 63.9983547,6.94234193 C63.9983547,6.94234193 66.9006365,6.31267944 71.211793,0.05361337 Z M60.988776,8.4629584 C61.3654646,8.5093546 61.5211823,8.8135074 61.5760543,9.0535892 C61.5945921,9.1353349 61.5938506,9.2789421 61.4677934,9.2325459 C61.3624985,9.1942506 61.2297677,9.161847 61.160807,9.1677385 C60.9665306,9.4939847 60.388892,9.4527437 59.8512951,9.0955667 C60.3251219,8.8761054 60.388892,8.3885772 60.988776,8.4629584 Z M63.7782737,0.08417593 C64.4686223,3.1986118 63.5269008,6.78216463 63.5269008,6.78216463 L63.5269008,6.78216463 L62.4086992,6.83518884 C62.4086992,6.83518884 58.2087697,7.11798462 57.1031738,4.10665139 C58.6240169,5.87412504 60.5185826,6.14808345 61.340179,5.07213387 C61.8125228,4.45499098 63.2132408,1.92234853 63.7782737,0.08417593 Z M43.8252716,1.33569457 C45.9363591,1.96830285 49.7996417,1.13759023 52.9177038,3.1090598 C48.5012525,2.29970416 45.9764008,2.9971198 43.5865045,2.60164757 C41.2537046,2.21501271 35.4832506,5.7543787 33.6791495,5.99298764 C29.7684101,6.47020553 26.0912472,3.79837452 19.4799175,5.18142266 C25.9318219,2.37334889 31.1698696,5.6424387 34.0373003,4.39121464 C36.3300584,3.38964624 41.6014742,0.66920971 43.8252716,1.33569457 Z M56.5006945,0 C56.9085267,0.03166724 57.6900813,1.80724181 56.6793992,2.59155824 C55.2690415,3.47161283 56.1603401,4.63299031 55.5448843,4.72725557 C54.928687,4.82152083 53.9914146,4.01511098 54.0210751,2.81838403 C54.0677904,0.97431985 56.1551495,0.56117288 56.5006945,0 Z" id="Shape"></path>
        </g>
    </g>
</svg>