<?xml version="1.0" encoding="UTF-8"?>
<svg width="101px" height="65px" viewBox="0 0 101 65" version="1.1" xmlns="http://www.w3.org/2000/svg" xmlns:xlink="http://www.w3.org/1999/xlink">
    <title>gold-rhino-white</title>
    <g id="🗄-Symbols" stroke="none" stroke-width="1" fill="none" fill-rule="evenodd">
        <g id="Logos-/-Rhino-(Negative)" transform="translate(-13.000000, -1.000000)" fill="#B28F64">
            <path d="M36.2804,62.964196 C37.30456,62.964196 37.92098,63.514756 37.92098,64.392396 C37.92098,65.270776 37.30456,65.821336 36.2804,65.821336 C35.25698,65.821336 34.64056,65.270776 34.64056,64.392396 C34.64056,63.514756 35.25698,62.964196 36.2804,62.964196 Z M68.587542,62.964196 C69.611702,62.964196 70.228122,63.514756 70.228122,64.392396 C70.228122,65.270776 69.611702,65.821336 68.587542,65.821336 C67.564122,65.821336 66.947702,65.270776 66.947702,64.392396 C66.947702,63.514756 67.564122,62.964196 68.587542,62.964196 Z M73.137432,62.963826 C73.796772,62.963826 74.239292,63.210246 74.508652,63.526226 L74.227452,63.722326 C73.985472,63.418186 73.626572,63.264266 73.137432,63.264266 C72.333052,63.264266 71.820972,63.645366 71.820972,64.392026 C71.820972,65.139426 72.336752,65.520526 73.161112,65.520526 C73.696132,65.520526 74.134952,65.362906 74.335492,64.989206 L74.335492,64.638446 L73.110792,64.638446 L73.110792,64.338746 L74.658872,64.338746 L74.658872,65.085406 C74.435392,65.504986 73.896672,65.820966 73.149272,65.820966 C72.106612,65.820966 71.490192,65.270406 71.490192,64.392026 C71.490192,63.514386 72.106612,62.963826 73.137432,62.963826 Z M91.050686,63.045226 L91.050686,63.344926 L88.806266,63.344926 L88.806266,64.219606 L90.708066,64.219606 L90.708066,64.519306 L88.806266,64.519306 L88.806266,65.439866 L91.089166,65.439866 L91.089166,65.740306 L88.482886,65.740306 L88.482886,63.045226 L91.050686,63.045226 Z M65.944336,63.044634 L65.944336,63.337674 L64.669316,63.337674 L64.669316,65.740454 L64.346676,65.740454 L64.346676,63.337674 L63.075356,63.337674 L63.075356,63.044634 L65.944336,63.044634 Z M50.232804,63.044634 L51.715764,65.740454 L51.350204,65.740454 L50.957264,65.016734 L49.139824,65.016734 L48.747624,65.740454 L48.388724,65.740454 L49.871684,63.044634 L50.232804,63.044634 Z M82.718656,63.044634 L82.718656,63.337674 L81.443636,63.337674 L81.443636,65.740454 L81.120996,65.740454 L81.120996,63.337674 L79.849676,63.337674 L79.849676,63.044634 L82.718656,63.044634 Z M78.672336,63.045226 L78.672336,63.344926 L76.427916,63.344926 L76.427916,64.219606 L78.329716,64.219606 L78.329716,64.519306 L76.427916,64.519306 L76.427916,65.439866 L78.710816,65.439866 L78.710816,65.740306 L76.104536,65.740306 L76.104536,63.045226 L78.672336,63.045226 Z M94.25422,63.044782 C94.8551,63.044782 95.28652,63.345222 95.28652,63.876542 C95.28652,64.346442 94.9476,64.638742 94.45106,64.696462 L95.37088,65.739862 L94.9476,65.739862 L94.05442,64.708302 L92.772,64.708302 L92.772,65.739862 L92.44492,65.739862 L92.44492,63.044782 L94.25422,63.044782 Z M84.323346,63.045004 L84.323346,64.219384 L86.541126,64.219384 L86.541126,63.045004 L86.864506,63.045004 L86.864506,65.740084 L86.541126,65.740084 L86.541126,64.527224 L84.323346,64.527224 L84.323346,65.740084 L83.999966,65.740084 L83.999966,63.045004 L84.323346,63.045004 Z M33.592942,63.044782 L33.592942,63.345222 L31.352222,63.345222 L31.352222,64.288722 L33.254022,64.288722 L33.254022,64.589162 L31.352222,64.589162 L31.352222,65.739862 L31.028842,65.739862 L31.028842,63.044782 L33.592942,63.044782 Z M41.168618,63.044782 C41.769498,63.044782 42.200918,63.345222 42.200918,63.876542 C42.200918,64.346442 41.861998,64.638742 41.365458,64.696462 L42.285278,65.739862 L41.861998,65.739862 L40.968818,64.708302 L39.686398,64.708302 L39.686398,65.739862 L39.359318,65.739862 L39.359318,63.044782 L41.168618,63.044782 Z M58.590142,63.044856 C59.575822,63.044856 60.206302,63.564336 60.206302,64.392396 C60.206302,65.220456 59.575822,65.739936 58.590142,65.739936 L57.280342,65.739936 L57.280342,63.044856 L58.590142,63.044856 Z M54.795792,63.044782 C55.396672,63.044782 55.828092,63.345222 55.828092,63.876542 C55.828092,64.346442 55.489172,64.638742 54.992632,64.696462 L55.912452,65.739862 L55.489172,65.739862 L54.595992,64.708302 L53.313572,64.708302 L53.313572,65.739862 L52.986492,65.739862 L52.986492,63.044782 L54.795792,63.044782 Z M43.658866,63.045004 L44.471386,65.347144 L45.346066,63.045004 L45.673146,63.045004 L46.543386,65.347144 L47.358866,63.045004 L47.705926,63.045004 L46.716546,65.740084 L46.373186,65.740084 L45.507386,63.433504 L44.637146,65.740084 L44.294526,65.740084 L43.305146,63.045004 L43.658866,63.045004 Z M68.587542,63.264636 C67.794262,63.264636 67.278482,63.668676 67.278482,64.392396 C67.278482,65.116856 67.794262,65.520896 68.587542,65.520896 C69.380822,65.520896 69.896602,65.116856 69.896602,64.392396 C69.896602,63.668676 69.380822,63.264636 68.587542,63.264636 Z M36.2804,63.264636 C35.48712,63.264636 34.97134,63.668676 34.97134,64.392396 C34.97134,65.116856 35.48712,65.520896 36.2804,65.520896 C37.07368,65.520896 37.58946,65.116856 37.58946,64.392396 C37.58946,63.668676 37.07368,63.264636 36.2804,63.264636 Z M58.566462,63.345296 L57.604462,63.345296 L57.604462,65.440236 L58.566462,65.440236 C59.333102,65.440236 59.875522,65.082076 59.875522,64.392396 C59.875522,63.703456 59.333102,63.345296 58.566462,63.345296 Z M50.048544,63.341374 L49.298184,64.723694 L50.799644,64.723694 L50.048544,63.341374 Z M54.772852,63.345222 L53.309872,63.345222 L53.309872,64.407862 L54.772852,64.407862 C55.207972,64.407862 55.497312,64.242102 55.497312,63.876542 C55.497312,63.510982 55.207972,63.345222 54.772852,63.345222 Z M41.145678,63.345222 L39.682698,63.345222 L39.682698,64.407862 L41.145678,64.407862 C41.580798,64.407862 41.870138,64.242102 41.870138,63.876542 C41.870138,63.510982 41.580798,63.345222 41.145678,63.345222 Z M94.23128,63.345222 L92.7683,63.345222 L92.7683,64.407862 L94.23128,64.407862 C94.6664,64.407862 94.95574,64.242102 94.95574,63.876542 C94.95574,63.510982 94.6664,63.345222 94.23128,63.345222 Z M109.49304,46.374358 C112.1526,46.374358 113.79392,47.759638 113.79392,50.043278 C113.79392,52.326918 112.1526,53.712198 109.49304,53.712198 C106.832,53.712198 105.19142,52.326918 105.19142,50.043278 C105.19142,47.759638 106.832,46.374358 109.49304,46.374358 Z M29.06392,46.374358 C31.72348,46.374358 33.3648,47.759638 33.3648,50.043278 C33.3648,52.326918 31.72348,53.712198 29.06392,53.712198 C26.40362,53.712198 24.7623,52.326918 24.7623,50.043278 C24.7623,47.759638 26.40362,46.374358 29.06392,46.374358 Z M17.3401,46.374506 C19.04136,46.374506 20.2076,47.007206 20.90024,47.748686 L19.93158,48.440586 C19.31812,47.748686 18.50708,47.413466 17.35046,47.413466 C15.40278,47.413466 14.20546,48.302946 14.20546,50.043426 C14.20546,51.783166 15.42276,52.673386 17.40966,52.673386 C18.62548,52.673386 19.61486,52.356666 20.11954,51.565606 L20.11954,50.774546 L17.23132,50.774546 L17.23132,49.756306 L21.2658,49.756306 L21.2658,51.951146 C20.6331,52.969386 19.25892,53.711606 17.36008,53.711606 C14.63096,53.711606 13,52.327066 13,50.043426 C13,47.759046 14.63096,46.374506 17.3401,46.374506 Z M69.039904,46.58252 C70.652364,46.58252 71.838584,47.3536 71.838584,48.78772 C71.838584,49.9843 71.008304,50.71542 69.801364,50.93298 L72.046524,53.50448 L70.582804,53.50448 L68.437544,50.99292 L65.519724,50.99292 L65.519724,53.50448 L64.333504,53.50448 L64.333504,46.58252 L69.039904,46.58252 Z M38.541618,46.58252 L38.541618,52.4559 L43.644658,52.4559 L43.644658,53.50448 L37.355398,53.50448 L37.355398,46.58252 L38.541618,46.58252 Z M77.074972,46.58215 L77.074972,49.45927 L82.305292,49.45927 L82.305292,46.58215 L83.492252,46.58215 L83.492252,53.50411 L82.305292,53.50411 L82.305292,50.52783 L77.074972,50.52783 L77.074972,53.50411 L75.888012,53.50411 L75.888012,46.58215 L77.074972,46.58215 Z M50.788692,46.581558 C53.360192,46.581558 55.001512,47.906898 55.001512,50.043278 C55.001512,52.178178 53.360192,53.503518 50.788692,53.503518 L47.278872,53.503518 L47.278872,46.581558 L50.788692,46.581558 Z M94.871898,46.58215 L100.054118,51.83245 L100.054118,46.58215 L101.210738,46.58215 L101.210738,53.50411 L100.162158,53.50411 L94.753498,48.04661 L94.753498,53.50411 L93.606498,53.50411 L93.606498,46.58215 L94.871898,46.58215 Z M89.14378,46.581928 L89.14378,53.503888 L87.95682,53.503888 L87.95682,46.581928 L89.14378,46.581928 Z M109.49304,47.422198 C107.61344,47.422198 106.39762,48.362738 106.39762,50.043278 C106.39762,51.723818 107.60382,52.663618 109.49304,52.663618 C111.37116,52.663618 112.57736,51.723818 112.57736,50.043278 C112.57736,48.362738 111.37116,47.422198 109.49304,47.422198 Z M29.06392,47.422198 C27.18506,47.422198 25.9685,48.362738 25.9685,50.043278 C25.9685,51.723818 27.1747,52.663618 29.06392,52.663618 C30.94204,52.663618 32.14824,51.723818 32.14824,50.043278 C32.14824,48.362738 30.94204,47.422198 29.06392,47.422198 Z M50.700632,47.620518 L48.465092,47.620518 L48.465092,52.465298 L50.700632,52.465298 C52.519552,52.465298 53.784952,51.644638 53.784952,50.043278 C53.784952,48.440438 52.519552,47.620518 50.700632,47.620518 Z M68.961464,47.62074 L65.510104,47.62074 L65.510104,49.97468 L68.961464,49.97468 C69.949364,49.97468 70.622764,49.65796 70.622764,48.79734 C70.622764,47.93672 69.949364,47.62074 68.961464,47.62074 Z M51.07633,22.365058 C50.96681,22.839398 50.83657,23.421778 49.95597,24.605778 C49.33437,25.353918 48.91479,26.306298 48.83117,26.512018 C48.11263,28.286538 47.86325,30.465838 48.21031,30.976438 C48.55293,31.481118 49.31365,31.578058 49.54897,32.545238 C49.5483583,32.5439252 49.5492628,32.5454563 49.550157,32.5469745 L49.5605686,32.5624665 C50.112188,32.5477181 50.6638022,32.5340527 51.2154889,32.5214761 C51.0950565,32.1961855 50.8144099,31.742356 50.164058,31.394464 C49.021498,30.781004 48.898658,29.352064 48.898658,29.229224 C48.898658,29.150784 48.841678,27.490964 49.293078,26.783524 C49.283458,26.866404 49.274578,26.947804 49.267918,27.027724 C49.267178,27.073604 49.265698,27.120224 49.266438,27.167584 C49.266438,27.244544 49.256818,27.319284 49.241278,27.391064 C49.190958,28.386364 49.321198,29.023504 49.321198,29.096764 C49.321198,29.219604 49.606838,30.689244 50.750138,31.301964 C51.4346573,31.6688132 51.7387842,32.1672347 51.872639,32.508174 C57.7297032,32.3826757 63.5996309,32.3812992 69.5743144,32.5097264 C69.5008625,31.4603936 70.4361771,30.8471717 70.341564,30.12825 C70.178024,28.88135 70.137324,28.20869 70.014484,27.06539 C69.910144,26.08489 70.013744,25.32935 70.069244,24.78101 C70.066284,26.57625 70.832924,28.54687 70.869924,30.16895 C70.9630545,30.881809 70.1487467,31.4907435 70.2213899,32.5241014 C70.4918202,32.5303633 70.7620415,32.5368479 71.0324915,32.543598 L71.0491698,32.4770207 C71.158043,32.1299327 71.6546755,31.6266113 72.026248,31.65968 C72.478388,31.69964 72.718148,32.17842 72.890568,32.67052 L72.859,32.585148 C73.0006765,32.5972724 73.1396062,32.6014073 73.2786021,32.605612 C73.3774332,32.1170212 73.8780684,31.6112248 74.311886,31.53166 C74.2100739,31.2940601 74.050358,30.998552 73.822746,30.77094 C73.8237915,30.7713528 73.8248362,30.7717657 73.82588,30.7721789 C74.986766,31.229074 75.088886,31.933554 75.088886,31.933554 L75.088886,31.933554 L75.1043129,31.9583552 C75.1261725,31.9906059 75.148957,32.0266458 75.17221,32.0654984 L75.1937463,32.1015803 C75.1977071,32.1086364 75.2016396,32.1157315 75.2055444,32.1228643 C75.3285265,32.3375752 75.4594216,32.6190891 75.531406,32.82444 L75.996194,32.6964329 C76.1023132,32.7003139 76.2084747,32.7042355 76.314679,32.7081976 C76.3551372,32.0978466 75.8746606,31.4203943 75.280028,30.86344 C74.899668,30.63108 75.306668,27.1072 76.623128,25.6383 C76.000788,27.11682 75.536808,30.74652 75.895708,30.96556 C76.4834246,31.5166691 77.2692989,32.1497952 77.3023996,32.7470141 C81.9217913,32.9289529 86.6273635,33.188513 91.457316,33.527736 C87.003996,33.527736 46.808676,33.512196 29.901156,33.527736 C34.7294593,33.1885865 39.4897626,32.9242576 44.2312391,32.738351 C44.2431847,32.2605596 44.7526083,31.6071177 44.70567,30.934776 C44.70345,30.903696 44.69827,30.872616 44.69383,30.842276 C44.72565,30.948096 44.75007,31.055396 44.77375,31.169356 C44.9345182,31.9351032 44.6367285,32.3132732 44.6456733,32.7221472 L46.2120807,32.6673056 C46.3205612,32.4931045 46.6007641,32.089348 46.885044,32.057504 C46.9274517,32.0527794 46.9678364,32.0525254 47.0062585,32.0560823 L47.115697,32.0775254 C47.4080494,32.1665132 47.5642457,32.4810215 47.6207921,32.6215224 L48.0557715,32.6073232 C48.0568267,32.6039033 48.0579038,32.6004469 48.0590031,32.5969557 C48.072256,32.5543767 48.0891647,32.5059492 48.1099014,32.4553101 C48.1153236,32.4425984 48.1206353,32.430084 48.1261826,32.417484 C48.1347465,32.3974642 48.144216,32.3770649 48.1543162,32.3566318 C48.1614757,32.3427466 48.1685626,32.3290006 48.1759429,32.315297 C48.1815145,32.3043264 48.1878742,32.2928946 48.1944435,32.281525 C48.2040708,32.2655137 48.2136341,32.2498234 48.2236165,32.2343443 C48.2345473,32.2167118 48.2466267,32.199082 48.2592857,32.1818714 C48.2691328,32.1691736 48.2787392,32.1567935 48.2886652,32.144694 C48.3003048,32.1297983 48.3130157,32.1152851 48.3262272,32.1013002 C48.3383771,32.08914 48.3506121,32.0770549 48.3632587,32.0654668 C48.3776987,32.0515445 48.3926621,32.0389709 48.4081771,32.0271539 C48.4433237,32.0010984 48.4810967,31.9783234 48.52185,31.960638 L48.444297,32.0017107 C48.4629095,31.9896365 48.4822515,31.9786487 48.5023462,31.968908 L48.52185,31.960638 C48.29911,31.486298 47.65679,31.031938 47.59759,30.895038 C47.02631,30.037378 47.61831,26.821338 49.07833,24.278698 C49.58079,23.688918 50.36223,23.207178 51.04673,22.395398 C51.05709,22.383558 51.06597,22.375418 51.07633,22.365058 Z M73.9091634,20.6244772 C74.1040844,20.1664449 75.8221806,20.1465345 76.5943366,20.2035267 C76.6515633,20.2078465 76.7042616,20.2124447 76.751148,20.217504 C76.751148,20.217504 76.549128,23.206364 75.075788,24.841764 C73.859228,26.193004 73.415228,28.593564 73.333088,30.005484 C73.2531601,29.6713382 73.1891017,29.3371793 73.1385477,29.007639 C73.1280325,28.936254 73.1178484,28.8656303 73.1082688,28.795268 C72.8242595,26.7264034 73.0599976,24.8816711 73.217648,24.431064 C73.2193227,24.426275 73.2209925,24.421492 73.2226573,24.4167149 C73.3511065,24.027836 73.4526832,23.6891895 73.5331942,23.3896948 C73.9179227,21.8522435 73.7207868,21.1321489 73.891788,20.694804 L73.891788,20.694804 Z M43.706818,23.214578 C44.197438,23.697058 44.801278,24.790038 44.228518,26.208618 C43.628378,27.694538 43.248018,28.137798 43.361238,29.247798 C43.268738,29.176018 43.173278,29.102018 43.071898,29.025798 C42.346698,28.331678 42.673778,27.738938 43.316838,26.146458 C43.882938,24.744898 43.926598,23.921278 43.706818,23.214578 Z M52.308948,21.057034 C53.524768,22.226234 56.220588,24.776274 62.809548,24.574994 C67.112648,24.019254 67.853388,23.923794 69.209808,23.738794 C69.240888,23.305894 69.354848,22.675414 69.687848,21.919134 C69.810688,23.185274 69.851388,23.634454 70.096328,24.206474 C70.0975613,24.223494 70.0982191,24.242734 70.098548,24.2638651 L70.098548,24.410714 C68.279628,24.638634 67.293208,24.999014 62.990848,25.554014 C56.387088,25.756034 53.983568,22.977334 52.308948,21.057034 Z M85.06712,14.038652 C87.46176,13.528052 88.90254,16.460672 93.09168,15.891612 C93.26114,15.868672 93.35734,15.840552 93.55788,15.834632 C87.80216,17.268012 87.84656,14.065292 85.28838,14.874852 C84.17098,17.012712 83.96748,16.781832 83.06616,17.224352 C82.5156,17.494452 80.51538,19.550172 79.63552,20.363432 C79.42166,22.611552 78.04378,23.824412 77.25198,24.700572 L77.258,24.692148 L77.2756857,24.6707082 C77.437183,24.4645694 78.3765706,23.2219989 78.6244687,21.9047366 L78.65502,21.716152 C78.20584,22.043232 77.8388,22.206032 77.31488,22.379192 C77.98458,21.819012 78.68462,20.838512 78.96138,20.450012 C79.36986,19.878732 82.05754,17.156272 82.90262,16.733732 C83.80098,16.284552 83.94972,16.175772 85.06712,14.038652 Z M87.360898,1.000148 C87.778998,1.032708 88.581158,2.865688 87.545158,3.675248 C87.497798,3.704108 87.455618,3.734448 87.413438,3.764048 C87.696858,3.300068 87.582158,2.658488 87.429718,2.164168 C87.306878,1.766048 87.032338,1.845228 86.815518,1.995448 C86.363378,2.311428 85.798758,2.690308 85.592298,3.726308 C85.349578,4.937688 85.749178,5.977388 86.380398,5.880448 C86.851778,5.807928 86.557258,5.173748 86.769638,4.576568 C87.286898,4.655008 87.669478,4.923628 87.986938,5.259588 C87.984718,5.252928 87.981758,5.246268 87.978798,5.239608 C89.537978,7.065928 91.481218,7.347868 92.322598,6.237868 C92.807298,5.599248 94.244378,2.984828 94.823058,1.087468 C95.504598,4.182888 94.635838,7.723788 94.569978,7.985008 C94.746838,8.039768 94.908158,8.100448 95.053198,8.166308 C95.150138,8.143368 98.097558,7.410028 102.445058,1.056388 C101.412758,5.897468 99.035138,8.698368 98.039098,9.803928 C97.680198,10.202788 97.277638,10.694888 97.454498,11.855208 C97.581778,12.537488 97.480398,13.276008 97.362738,13.836188 C97.298358,14.576188 96.932058,15.370948 96.157278,15.313968 C96.032218,15.638088 95.600798,16.304828 94.214778,15.957768 C95.521618,15.978488 95.654078,15.305088 95.694778,15.222948 C95.960438,15.202228 96.284558,14.976528 96.236458,14.814468 C95.235978,14.733068 93.081838,13.436588 92.827278,14.366028 C91.550038,13.742208 89.611238,14.043388 87.935878,13.038468 C86.006698,11.880368 87.295778,9.766928 85.301478,8.383868 C85.784698,9.413208 85.140898,9.895688 84.768678,11.693888 C84.022758,10.363368 83.503278,7.996108 84.022018,6.277828 C83.948018,6.092088 83.029678,7.174708 82.878718,8.360928 C82.552378,10.933908 83.164358,10.893208 83.157698,13.519468 C82.265998,9.422828 79.243838,9.422828 76.875838,7.054088 C77.610658,8.565168 78.794658,9.708468 80.102238,11.750128 C81.409078,13.792528 80.509978,15.834928 78.917498,18.202928 C79.162438,18.979188 78.958198,19.708088 78.591158,19.509768 C78.059838,19.224128 77.590678,19.142728 77.161478,19.060588 C76.303818,18.897048 72.710378,19.183428 71.525638,20.286028 C72.615658,17.482168 76.426658,18.734248 77.682438,17.570228 C76.314178,17.580588 75.007338,17.417048 74.466398,17.018928 C74.131178,16.047308 74.624018,13.168708 73.445198,12.404288 C72.417338,15.424228 70.361618,15.854908 69.320438,20.633088 C68.830558,17.753748 70.882578,14.349008 70.645038,13.740728 C69.349298,15.837888 68.269638,16.177548 67.437138,18.120048 C62.925358,20.343748 54.291778,16.936788 51.777998,13.984928 C52.015538,15.701728 52.244198,17.770768 53.475558,19.469068 C52.112478,18.915548 50.774558,16.132408 50.514078,14.201008 C50.300218,12.608528 50.667258,11.842628 49.687498,11.658368 C48.706998,11.474848 49.068118,13.041428 49.197618,13.924988 C49.657158,17.057408 52.331518,18.530008 47.186298,22.449788 C48.248198,17.876588 45.174978,17.192088 46.794098,11.579928 C45.686318,11.790828 44.450518,12.504928 43.580278,14.062628 C43.048218,12.791308 43.496658,10.912448 44.269218,9.475368 C41.915278,11.587328 40.689838,15.181508 42.650098,20.898748 C42.904658,21.640968 43.097798,22.048708 43.251718,22.335088 C42.649358,21.416008 41.500878,19.569708 40.951058,15.886728 L40.951,15.887148 L40.8738792,16.0471577 C40.5306359,16.8421258 40.4187272,18.2693777 40.3026755,19.6626358 L40.277658,19.960428 C40.191818,20.963128 40.243618,23.716668 38.160518,23.757368 C38.977478,22.941148 38.012518,21.919208 39.511758,19.929348 C39.804798,18.597348 40.003858,14.822608 40.621758,13.170188 C41.239658,11.517768 43.091878,9.593028 45.912758,7.555808 C47.567398,6.360708 50.782698,6.014388 52.350758,5.873788 C57.305058,5.429788 60.520358,7.327148 63.892538,6.912008 C65.742538,6.665588 71.770578,3.021828 74.162998,3.420688 C76.480678,3.806968 78.883458,3.421428 82.968998,4.085208 C83.202838,4.122948 84.372778,4.299068 84.857478,4.381208 C84.828618,4.232468 84.814558,4.074848 84.818998,3.909828 C84.866358,2.005808 87.007178,1.578828 87.360898,1.000148 Z M96.721158,12.746908 C96.516178,12.751348 96.240898,12.807588 95.876078,12.945228 C95.842778,13.011088 95.725858,13.237528 96.297138,13.660808 C96.513218,13.820648 96.753718,13.984188 96.848438,13.972348 C97.094858,13.942008 97.043058,13.553508 97.109658,13.237528 C97.145178,13.066588 97.290958,12.736548 96.721158,12.746908 Z M91.962958,9.736588 C91.347278,9.659628 91.282158,10.162828 90.795978,10.390008 C91.347278,10.759268 91.940018,10.801448 92.139078,10.464008 C92.210118,10.458088 92.345538,10.491388 92.453578,10.531348 C92.583078,10.578708 92.583818,10.430708 92.564578,10.347828 C92.509078,10.098448 92.348498,9.785428 91.962958,9.736588 Z M99.243818,7.320488 C97.926618,8.239568 96.946858,8.545928 95.801338,8.833788 C96.194278,9.230428 96.733738,9.881628 97.130378,10.414428 C97.498158,9.311828 98.508998,8.912968 99.243818,7.320488 Z M94.088238,5.217408 C92.944938,7.259808 92.087278,7.586148 91.003178,7.405588 C91.163018,7.505488 91.322118,7.590588 91.476778,7.663108 C91.959258,7.887328 92.403998,7.987228 92.750318,8.030888 C93.079618,8.071588 93.485878,8.147808 93.883998,8.024968 C93.900278,7.928768 94.292478,6.524248 94.088238,5.217408 Z" id="gold-rhino-white"></path>
        </g>
    </g>
</svg>