<?xml version="1.0" encoding="UTF-8"?>
<svg width="101px" height="65px" viewBox="0 0 101 65" version="1.1" xmlns="http://www.w3.org/2000/svg" xmlns:xlink="http://www.w3.org/1999/xlink">
    <title>Untitled</title>
    <g id="Page-1" stroke="none" stroke-width="1" fill="none" fill-rule="evenodd">
        <g id="gold-rhino" fill="#B28F64" fill-rule="nonzero">
            <path d="M23.3277018,62.1558403 C24.3539557,62.1558403 24.971636,62.7037571 24.971636,63.5779202 C24.971636,64.4520832 24.3539557,65 23.3277018,65 C22.3021893,65 21.684509,64.4520832 21.684509,63.5779202 C21.684509,62.7037571 22.3021893,62.1558403 23.3277018,62.1558403 Z M55.700453,62.1558403 C56.7274485,62.1558403 57.3451288,62.7037571 57.3451288,63.5779202 C57.3451288,64.4520832 56.7274485,65 55.700453,65 C54.675682,65 54.0580017,64.4520832 54.0580017,63.5779202 C54.0580017,62.7037571 54.675682,62.1558403 55.700453,62.1558403 Z M60.2603871,62.156945 C60.9210751,62.156945 61.3644999,62.4014455 61.6344106,62.716645 L61.3526357,62.9110671 C61.1101609,62.6083872 60.7497856,62.4552062 60.2603871,62.4552062 C59.4543624,62.4552062 58.9412355,62.8344766 58.9412355,63.5775519 C58.9412355,64.3213638 59.45807,64.7013706 60.2841155,64.7013706 C60.8202294,64.7013706 61.2599466,64.5437709 61.4608966,64.1718649 L61.4608966,63.8227889 L60.2336926,63.8227889 L60.2336926,63.5245277 L61.7849377,63.5245277 L61.7849377,64.2676031 C61.5610008,64.6844323 61.0211794,64.9996318 60.2722513,64.9996318 C59.2274595,64.9996318 58.6097792,64.4517149 58.6097792,63.5775519 C58.6097792,62.7048618 59.2274595,62.156945 60.2603871,62.156945 Z M81.4203498,62.2372177 C82.0224583,62.2372177 82.4547604,62.5354789 82.4547604,63.0642481 C82.4547604,63.5318922 82.1151474,63.8235254 81.6175922,63.8809682 L82.5392928,64.919359 L82.1151474,64.919359 L81.2201413,63.892015 L79.9350993,63.892015 L79.9350993,64.919359 L79.6073505,64.919359 L79.6073505,62.2372177 L81.4203498,62.2372177 Z M30.7212535,62.237365 L31.5354348,64.5277163 L32.4119031,62.237365 L32.7396519,62.237365 L33.6116711,64.5277163 L34.4288184,62.237365 L34.776588,62.237365 L33.7851852,64.9195063 L33.4411231,64.9195063 L32.5735529,62.6232635 L31.7015337,64.9195063 L31.3582132,64.9195063 L30.3668103,62.237365 L30.7212535,62.237365 Z M37.3085582,62.2362604 L38.7945502,64.9191381 L38.4282428,64.9191381 L38.0344994,64.1988926 L36.2133436,64.1988926 L35.8203417,64.9191381 L35.4607079,64.9191381 L36.9466999,62.2362604 L37.3085582,62.2362604 Z M71.4692456,62.237365 L71.4692456,63.4053705 L73.69156,63.4053705 L73.69156,62.237365 L74.0156011,62.237365 L74.0156011,64.9195063 L73.69156,64.9195063 L73.69156,63.7117326 L71.4692456,63.7117326 L71.4692456,64.9195063 L71.1452044,64.9195063 L71.1452044,62.237365 L71.4692456,62.237365 Z M69.8612005,62.2362604 L69.8612005,62.5278935 L68.5835737,62.5278935 L68.5835737,64.9191381 L68.260274,64.9191381 L68.260274,62.5278935 L66.9863547,62.5278935 L66.9863547,62.2362604 L69.8612005,62.2362604 Z M53.0525843,62.2362604 L53.0525843,62.5278935 L51.7749574,62.5278935 L51.7749574,64.9191381 L51.4516578,64.9191381 L51.4516578,62.5278935 L50.1777385,62.5278935 L50.1777385,62.2362604 L53.0525843,62.2362604 Z M41.8808756,62.2372177 C42.4829841,62.2372177 42.9152862,62.5354789 42.9152862,63.0642481 C42.9152862,63.5318922 42.5756732,63.8235254 42.078118,63.8809682 L42.9998187,64.919359 L42.5756732,64.919359 L41.6806671,63.892015 L40.3956251,63.892015 L40.3956251,64.919359 L40.0678763,64.919359 L40.0678763,62.2372177 L41.8808756,62.2372177 Z M28.2258399,62.2372177 C28.8279484,62.2372177 29.2602505,62.5354789 29.2602505,63.0642481 C29.2602505,63.5318922 28.9206376,63.8235254 28.4230823,63.8809682 L29.344783,64.919359 L28.9206376,64.919359 L28.0256314,63.892015 L26.7405894,63.892015 L26.7405894,64.919359 L26.4128407,64.919359 L26.4128407,62.2372177 L28.2258399,62.2372177 Z M78.2102659,62.237586 L78.2102659,62.5358472 L75.961257,62.5358472 L75.961257,63.4055915 L77.8669454,63.4055915 L77.8669454,63.7045891 L75.961257,63.7045891 L75.961257,64.6207296 L78.2488246,64.6207296 L78.2488246,64.9189908 L75.6372159,64.9189908 L75.6372159,62.237586 L78.2102659,62.237586 Z M65.8066075,62.237586 L65.8066075,62.5358472 L63.5575987,62.5358472 L63.5575987,63.4055915 L65.463287,63.4055915 L65.463287,63.7045891 L63.5575987,63.7045891 L63.5575987,64.6207296 L65.8451662,64.6207296 L65.8451662,64.9189908 L63.234299,64.9189908 L63.234299,62.237586 L65.8066075,62.237586 Z M20.6347491,62.2375123 L20.6347491,62.5357735 L18.3894478,62.5357735 L18.3894478,63.473271 L20.2951361,63.473271 L20.2951361,63.7737415 L18.3894478,63.7737415 L18.3894478,64.9181807 L18.0654066,64.9181807 L18.0654066,62.2375123 L20.6347491,62.2375123 Z M45.6829834,62.237586 C46.6706787,62.237586 47.3024477,62.7538356 47.3024477,63.5779202 C47.3024477,64.4020047 46.6706787,64.9189908 45.6829834,64.9189908 L44.3705054,64.9189908 L44.3705054,62.237586 L45.6829834,62.237586 Z M55.700453,62.4555744 C54.9062926,62.4555744 54.389458,62.8569382 54.389458,63.5779202 C54.389458,64.2989021 54.9062926,64.7002659 55.700453,64.7002659 C56.4960964,64.7002659 57.012931,64.2989021 57.012931,63.5779202 C57.012931,62.8569382 56.4960964,62.4555744 55.700453,62.4555744 Z M23.3277018,62.4555744 C22.5327998,62.4555744 22.0159653,62.8569382 22.0159653,63.5779202 C22.0159653,64.2989021 22.5327998,64.7002659 23.3277018,64.7002659 C24.1226037,64.7002659 24.6394382,64.2989021 24.6394382,63.5779202 C24.6394382,62.8569382 24.1226037,62.4555744 23.3277018,62.4555744 Z M45.659255,62.5358472 L44.6952881,62.5358472 L44.6952881,64.6207296 L45.659255,64.6207296 C46.4274624,64.6207296 46.9709914,64.2642891 46.9709914,63.5779202 C46.9709914,62.8908148 46.4274624,62.5358472 45.659255,62.5358472 Z M37.1239215,62.5323122 L36.3720273,63.9072594 L37.8765572,63.9072594 L37.1239215,62.5323122 Z M41.8578887,62.5354789 L40.3919175,62.5354789 L40.3919175,63.5937538 L41.8578887,63.5937538 C42.2938983,63.5937538 42.5838299,63.4273167 42.5838299,63.0642481 C42.5838299,62.7004431 42.2938983,62.5354789 41.8578887,62.5354789 Z M28.202853,62.5354789 L26.7368818,62.5354789 L26.7368818,63.5937538 L28.202853,63.5937538 C28.6388626,63.5937538 28.9287942,63.4273167 28.9287942,63.0642481 C28.9287942,62.7004431 28.6388626,62.5354789 28.202853,62.5354789 Z M81.3973629,62.5354789 L79.9313917,62.5354789 L79.9313917,63.5937538 L81.3973629,63.5937538 C81.8333725,63.5937538 82.1233041,63.4273167 82.1233041,63.0642481 C82.1233041,62.7004431 81.8333725,62.5354789 81.3973629,62.5354789 Z M96.689585,44.6471945 C99.355324,44.6471945 101,46.0250875 101,48.2977641 C101,50.5711771 99.355324,51.9490701 96.689585,51.9490701 C94.023846,51.9490701 92.379912,50.5711771 92.379912,48.2977641 C92.379912,46.0250875 94.023846,44.6471945 96.689585,44.6471945 Z M16.0967638,44.6471945 C18.7617614,44.6471945 20.4064372,46.0250875 20.4064372,48.2977641 C20.4064372,50.5711771 18.7617614,51.9490701 16.0967638,51.9490701 C13.4310246,51.9490701 11.7863488,50.5711771 11.7863488,48.2977641 C11.7863488,46.0250875 13.4310246,44.6471945 16.0967638,44.6471945 Z M4.3489736,44.6472682 C6.053712,44.6472682 7.2223364,45.2754578 7.9163926,46.013378 L6.9450106,46.7034292 C6.3310378,46.013378 5.5183396,45.6805038 4.3593548,45.6805038 C2.4076926,45.6805038 1.2079246,46.5649771 1.2079246,48.2978377 C1.2079246,50.028489 2.426972,50.9159081 4.4186758,50.9159081 C5.6369817,50.9159081 6.6283845,50.6007086 7.1340964,49.8134464 L7.1340964,49.0261842 L4.2399712,49.0261842 L4.2399712,48.0128326 L8.2827,48.0128326 L8.2827,50.1971354 C7.6487064,51.210487 6.2717168,51.9491437 4.3689945,51.9491437 C1.6342946,51.9491437 0,50.5712507 0,48.2978377 C0,46.0251612 1.6342946,44.6472682 4.3489736,44.6472682 Z M56.1544814,44.8528106 C57.7702382,44.8528106 58.959625,45.6209252 58.959625,47.0481602 C58.959625,48.2389956 58.1269059,48.9666056 56.9182398,49.1838575 L59.1672486,51.7422756 L57.6997944,51.7422756 L55.5508898,49.2427733 L52.6278456,49.2427733 L52.6278456,51.7422756 L51.4384588,51.7422756 L51.4384588,44.8528106 L56.1544814,44.8528106 Z M37.8659535,44.8526634 C40.4427111,44.8526634 42.0873869,46.1716406 42.0873869,48.2977641 C42.0873869,50.4231511 40.4427111,51.7421284 37.8659535,51.7421284 L34.3489575,51.7421284 L34.3489575,44.8526634 L37.8659535,44.8526634 Z M82.0400322,44.8528106 L87.232106,50.0786411 L87.232106,44.8528106 L88.391091,44.8528106 L88.391091,51.7415392 L87.340367,51.7415392 L81.9206486,46.31024 L81.9206486,51.7415392 L80.7713034,51.7415392 L80.7713034,44.8528106 L82.0400322,44.8528106 Z M25.5938396,44.8531789 L25.5938396,50.699098 L30.7073131,50.699098 L30.7073131,51.7419074 L24.4051943,51.7419074 L24.4051943,44.8531789 L25.5938396,44.8531789 Z M64.2056069,44.8528106 L64.2056069,47.7168544 L69.4466206,47.7168544 L69.4466206,44.8528106 L70.6360074,44.8528106 L70.6360074,51.7415392 L69.4466206,51.7415392 L69.4466206,48.7795479 L64.2056069,48.7795479 L64.2056069,51.7415392 L63.0169616,51.7415392 L63.0169616,44.8528106 L64.2056069,44.8528106 Z M76.3002026,44.8522215 L76.3002026,51.74095 L75.1108158,51.74095 L75.1108158,44.8522215 L76.3002026,44.8522215 Z M16.0967638,45.690004 C14.2140623,45.690004 12.995015,46.6252921 12.995015,48.2977641 C12.995015,49.970236 14.2036811,50.9055242 16.0967638,50.9055242 C17.9787237,50.9055242 19.1873899,49.970236 19.1873899,48.2977641 C19.1873899,46.6252921 17.9787237,45.690004 16.0967638,45.690004 Z M96.689585,45.690004 C94.806884,45.690004 93.587836,46.6252921 93.587836,48.2977641 C93.587836,49.970236 94.796502,50.9055242 96.689585,50.9055242 C98.572287,50.9055242 99.780953,49.970236 99.780953,48.2977641 C99.780953,46.6252921 98.572287,45.690004 96.689585,45.690004 Z M37.7777135,45.8866354 L35.5376028,45.8866354 L35.5376028,50.7074198 L37.7777135,50.7074198 C39.6003524,50.7074198 40.8683396,49.8914362 40.8683396,48.2977641 C40.8683396,46.7033556 39.6003524,45.8866354 37.7777135,45.8866354 Z M56.075881,45.8853098 L52.6174645,45.8853098 L52.6174645,48.2294218 L56.075881,48.2294218 C57.0665423,48.2294218 57.7398361,47.9142223 57.7398361,47.0569976 C57.7398361,46.2012457 57.0665423,45.8853098 56.075881,45.8853098 Z M69.1293272,7.12984142 C69.2761468,5.98098355 70.1718945,4.93301896 70.2445627,5.11271212 C69.7381094,6.77708314 70.2453042,9.0696438 70.9727285,10.3584266 C71.3353283,8.6167286 71.9633898,8.149821 71.4925291,7.15193484 C73.4367761,8.492269 72.2451647,10.7973492 74.1271247,11.9182221 C75.7606778,12.8910691 77.2318395,12.3549354 78.8320246,12.9470391 C79.0833975,11.9498894 79.7885763,12.2591972 81.4035916,12.8225795 C82.6522994,13.2570834 82.56925,12.5368379 82.3764566,12.3858662 C82.0450003,12.1259003 81.6594135,11.8600428 81.8047501,11.570619 C83.1491131,11.0661525 83.2188153,11.689187 83.2484759,11.9167492 C83.3582198,12.7968038 82.9496461,14.2100463 81.7446875,13.7954264 C81.2374927,14.7638547 79.9754376,14.3838479 79.5446185,14.3691189 C73.9306238,15.7573222 73.974373,12.6554059 71.4799234,13.4397224 C70.3898993,15.5098759 70.2052625,15.2395997 69.3287942,15.6748401 C68.4523259,16.1100805 67.8932251,16.6336945 66.6437757,17.6846049 C65.460321,18.6810182 64.8211368,19.7797976 63.7021937,20.7084578 C64.8211368,20.6311308 65.4091566,19.6899511 65.9059703,19.1972678 C65.5544931,21.3594772 64.006214,22.4221707 63.2847219,23.3780794 C62.5624883,24.3347245 61.9210795,28.783603 62.3185305,29.0251577 C62.8914624,29.5577427 63.6581719,30.1719566 63.6905039,30.7504289 C68.1956423,30.9265047 72.7850634,31.1781127 77.4958182,31.5069117 C73.2396375,31.5069117 35.5053292,31.4920587 18.4783217,31.5060205 L17.4621858,31.5069117 C22.1706963,31.1780926 26.8128895,30.9218428 31.4367185,30.7416299 C31.4488615,30.2789029 31.9458961,29.6463384 31.900185,28.9949634 C31.8594018,28.4308447 31.3143898,27.8998662 30.3066736,27.1457441 C29.6000117,26.4733676 29.9181208,25.9004116 30.5454408,24.3575544 C31.1727608,22.8146972 31.1431003,21.9935584 30.8242497,21.2416456 C30.5061406,20.4904693 28.9526709,19.1059483 28.2749281,14.5966812 C27.8544902,15.3736331 27.7996182,16.9098623 27.6683704,18.4438821 C27.5845795,19.4145198 27.5482453,22.0038687 25.5172413,22.0429004 C26.3136262,21.2519559 25.2495551,20.2518604 26.7125602,18.3238412 C26.9980427,17.032849 27.3146687,13.3889075 27.9167773,11.7871345 C28.5196273,10.1875708 30.1472483,8.4657569 32.5371447,6.76456353 C31.2528442,7.98043812 30.0671649,10.9070799 30.8027458,12.6531966 C31.6517782,11.1434795 32.8567368,10.4526919 33.9378627,10.248696 C32.3576985,15.682941 35.354894,16.3472165 34.3190004,20.7762109 C39.3375602,16.9798248 36.7296591,15.5540627 36.2810437,12.5198996 C36.154245,11.6626749 35.8027678,10.1463298 36.7585781,10.32455 C37.7143883,10.5012974 37.3562375,11.2443728 37.5653442,12.78723 C37.8189416,14.6578063 39.1240045,17.3539401 40.4527957,17.8900737 C39.2522862,16.2448503 39.0290908,14.2402406 38.7977388,12.5773425 C41.2499222,15.4369676 49.6690606,18.7369882 54.0699401,16.5828797 C54.8818968,14.7005202 55.9348452,14.3720647 57.1976418,12.3402065 C57.4289939,12.9301008 55.4283919,16.2286485 55.9066677,19.0168382 C56.9225405,14.389003 58.9268501,13.9714373 59.9286341,11.0470049 C61.0787208,11.786398 60.5982204,14.5753242 60.9244861,15.5165039 C61.4524433,15.9009294 62.7271041,16.060002 64.061086,16.0504282 C62.8361065,17.1779291 59.120385,15.9650003 58.0570554,18.6810182 C59.2123326,17.6131695 62.716723,17.3362653 63.5531496,17.4931286 C63.9721044,17.5734014 64.4296179,17.6522012 64.947194,17.9291054 C65.3053448,18.1213182 65.5048118,17.4150652 65.2660446,16.6638889 C66.8180312,14.3691189 67.6952411,12.3917578 66.4205803,10.4129237 C65.146661,8.436299 63.9913838,7.32868221 63.2743407,5.86315197 C65.5841536,8.1586584 68.5324093,8.1586584 69.4014625,12.1251638 L69.401,12.123 L69.398866,11.7940217 C69.3584574,9.6866964 68.8751188,9.5211078 69.0914821,7.45456097 L69.1293272,7.12984142 Z M60.2979076,28.8366272 C60.51962,29.0575614 60.6745962,29.3440394 60.7747005,29.5730746 C60.3231645,29.6555252 59.7874631,30.2791789 59.7877401,30.6154205 C60.4829639,30.6346463 61.1787585,30.6573329 61.876393,30.6818065 C61.7856314,30.4227158 61.6758175,30.1655728 61.5310437,29.9641281 L61.5310437,29.9641281 C61.5325267,29.9641281 61.4324225,29.280705 60.2979076,28.8366272 Z M34.1435703,30.0814428 L34.0253612,30.0826961 C33.7480928,30.1132933 33.4744697,30.5054792 33.36916,30.6735495 C33.8275089,30.6549483 34.2844549,30.6399725 34.7413329,30.6257492 C34.6739972,30.4594993 34.4569895,30.0353936 34.0253612,30.0826961 L34.1435703,30.0814428 Z M35.7879376,29.9493992 C35.4197815,29.9698583 35.240128,30.3804418 35.1672324,30.6149749 C35.6556875,30.5980003 36.1440693,30.5841547 36.6324468,30.5711744 C36.5222186,30.3807984 36.2123972,29.9261407 35.7879376,29.9493992 Z M58.5449709,29.6990071 C58.1591681,29.6652169 57.634433,30.2208908 57.5759894,30.5537462 C58.1692048,30.5676583 58.7639569,30.583691 59.3599346,30.6010342 C59.1936325,30.1516901 58.9626899,29.7345669 58.5449709,29.6990071 Z M39.0587513,19.1354062 C38.1029411,21.3594772 36.49979,21.9051847 36.071937,22.7152768 C35.7782979,23.2712945 35.1650667,24.3222049 34.9174013,25.6824232 C34.7765139,26.4505378 34.2745096,27.5169135 34.8321273,28.3476262 C34.9344561,28.5832893 35.0382679,28.7600367 35.3267165,29.0479876 C35.2926069,28.9920176 35.2607218,28.9323654 35.2362519,28.8668216 C34.9974847,28.2327404 35.3652752,25.0395046 36.7585781,23.2005956 C36.0422765,25.454861 36.4011688,27.0964021 36.4011688,27.2149701 C36.4011688,27.3335382 36.6799777,28.7563544 37.7952132,29.3506675 C38.4616992,29.7058402 38.7582173,30.1877892 38.8889327,30.5181372 C44.6019134,30.3968477 50.327119,30.3955631 56.1545252,30.5201109 C56.0813625,29.5043609 56.994525,28.9106291 56.9017782,28.2135927 C56.7423529,27.0050826 56.7030527,26.3547996 56.5836691,25.2471828 C56.4383326,23.9061122 56.7030527,22.992181 56.663011,22.4781407 C56.4242438,21.9243323 56.3842021,21.4890919 56.2648185,20.2629071 C55.7872842,21.4102921 55.776903,21.9935584 55.7872842,22.8146972 C54.462942,22.9936539 53.9290526,23.2455189 49.7328307,23.7831255 C42.9427963,23.9900672 40.6804402,20.964005 39.0587513,19.1354062 Z M63.1534741,18.6147379 C62.4779558,18.5418296 61.5888817,18.4630298 61.3879317,18.9726513 C61.1869817,19.4822729 61.3323182,20.4035685 60.5559541,22.607019 C60.3728004,23.1269509 59.2323535,25.6551746 59.8196317,28.0950247 C59.8997151,26.7281784 60.3327587,24.4010048 61.5191795,23.0930743 C62.9554901,21.5097125 63.1534741,18.6147379 63.1534741,18.6147379 Z M88.211793,0.05361337 C87.204818,4.74404657 84.8861073,7.45711863 83.9147253,8.5271766 C83.5602821,8.9182302 83.1620896,9.3998667 83.3504339,10.5516704 C83.0360324,10.2408896 82.6912289,9.4933956 82.7535159,8.9329591 C82.1328696,7.86216467 80.9983547,6.94234193 80.9983547,6.94234193 C80.9983547,6.94234193 83.9006365,6.31267944 88.211793,0.05361337 Z M77.988776,8.4629584 C78.3654646,8.5093546 78.5211823,8.8135074 78.5760543,9.0535892 C78.5945921,9.1353349 78.5938506,9.2789421 78.4677934,9.2325459 C78.3624985,9.1942506 78.2297677,9.161847 78.160807,9.1677385 C77.9665306,9.4939847 77.388892,9.4527437 76.8512951,9.0955667 C77.3251219,8.8761054 77.388892,8.3885772 77.988776,8.4629584 Z M80.7782737,0.08417593 C81.4686223,3.1986118 80.5269008,6.78216463 80.5269008,6.78216463 L80.5269008,6.78216463 L79.4086992,6.83518884 C79.4086992,6.83518884 75.2087697,7.11798462 74.1031738,4.10665139 C75.6240169,5.87412504 77.5185826,6.14808345 78.340179,5.07213387 C78.8125228,4.45499098 80.2132408,1.92234853 80.7782737,0.08417593 Z M60.8252716,1.33569457 C62.9363591,1.96830285 66.7996417,1.13759023 69.9177038,3.1090598 C65.5012525,2.29970416 62.9764008,2.9971198 60.5865045,2.60164757 C58.2537046,2.21501271 52.4832506,5.7543787 50.6791495,5.99298764 C46.7684101,6.47020553 43.0912472,3.79837452 36.4799175,5.18142266 C42.9318219,2.37334889 48.1698696,5.6424387 51.0373003,4.39121464 C53.3300584,3.38964624 58.6014742,0.66920971 60.8252716,1.33569457 Z M73.5006945,0 C73.9085267,0.03166724 74.6900813,1.80724181 73.6793992,2.59155824 C72.2690415,3.47161283 73.1603401,4.63299031 72.5448843,4.72725557 C71.928687,4.82152083 70.9914146,4.01511098 71.0210751,2.81838403 C71.0677904,0.97431985 73.1551495,0.56117288 73.5006945,0 Z"></path>
        </g>
    </g>
</svg>