<?xml version="1.0" encoding="UTF-8"?>
<svg width="74px" height="33px" viewBox="0 0 74 33" version="1.1" xmlns="http://www.w3.org/2000/svg" xmlns:xlink="http://www.w3.org/1999/xlink">
    <title>gold-rhino</title>
    <g id="Page-1" stroke="none" stroke-width="1" fill="none" fill-rule="evenodd">
        <g id="gold-rhino" fill="#B28F64" fill-rule="nonzero">
            <path d="M22.07633,21.365058 C21.96681,21.839398 21.83657,22.421778 20.95597,23.605778 C20.33437,24.353918 19.91479,25.306298 19.83117,25.512018 C19.11263,27.286538 18.86325,29.465838 19.21031,29.976438 C19.55293,30.481118 20.31365,30.578058 20.54897,31.545238 C20.5483583,31.5439252 20.5492628,31.5454563 20.550157,31.5469745 L20.5605686,31.5624665 C21.112188,31.5477181 21.6638022,31.5340527 22.2154889,31.5214761 C22.0950565,31.1961855 21.8144099,30.742356 21.164058,30.394464 C20.021498,29.781004 19.898658,28.352064 19.898658,28.229224 C19.898658,28.150784 19.841678,26.490964 20.293078,25.783524 C20.283458,25.866404 20.274578,25.947804 20.267918,26.027724 C20.267178,26.073604 20.265698,26.120224 20.266438,26.167584 C20.266438,26.244544 20.256818,26.319284 20.241278,26.391064 C20.190958,27.386364 20.321198,28.023504 20.321198,28.096764 C20.321198,28.219604 20.606838,29.689244 21.750138,30.301964 C22.4346573,30.6688132 22.7387842,31.1672347 22.872639,31.508174 C28.7297032,31.3826757 34.5996309,31.3812992 40.5743144,31.5097264 C40.5008625,30.4603936 41.4361771,29.8471717 41.341564,29.12825 C41.178024,27.88135 41.137324,27.20869 41.014484,26.06539 C40.910144,25.08489 41.013744,24.32935 41.069244,23.78101 C41.066284,25.57625 41.832924,27.54687 41.869924,29.16895 C41.9630545,29.881809 41.1487467,30.4907435 41.2213899,31.5241014 C41.4918202,31.5303633 41.7620415,31.5368479 42.0324915,31.543598 L42.0491698,31.4770207 C42.158043,31.1299327 42.6546755,30.6266113 43.026248,30.65968 C43.478388,30.69964 43.718148,31.17842 43.890568,31.67052 L43.859,31.585148 C44.0006765,31.5972724 44.1396062,31.6014073 44.2786021,31.605612 C44.3774332,31.1170212 44.8780684,30.6112248 45.311886,30.53166 C45.2100739,30.2940601 45.050358,29.998552 44.822746,29.77094 C44.8237915,29.7713528 44.8248362,29.7717657 44.82588,29.7721789 C45.986766,30.229074 46.088886,30.933554 46.088886,30.933554 L46.088886,30.933554 L46.1043129,30.9583552 C46.1261725,30.9906059 46.148957,31.0266458 46.17221,31.0654984 L46.1937463,31.1015803 C46.1977071,31.1086364 46.2016396,31.1157315 46.2055444,31.1228643 C46.3285265,31.3375752 46.4594216,31.6190891 46.531406,31.82444 L46.996194,31.6964329 C47.1023132,31.7003139 47.2084747,31.7042355 47.314679,31.7081976 C47.3551372,31.0978466 46.8746606,30.4203943 46.280028,29.86344 C45.899668,29.63108 46.306668,26.1072 47.623128,24.6383 C47.000788,26.11682 46.536808,29.74652 46.895708,29.96556 C47.4834246,30.5166691 48.2692989,31.1497952 48.3023996,31.7470141 C52.9217913,31.9289529 57.6273635,32.188513 62.457316,32.527736 C58.003996,32.527736 17.808676,32.512196 0.901156,32.527736 C5.7294593,32.1885865 10.4897626,31.9242576 15.2312391,31.738351 C15.2431847,31.2605596 15.7526083,30.6071177 15.70567,29.934776 C15.70345,29.903696 15.69827,29.872616 15.69383,29.842276 C15.72565,29.948096 15.75007,30.055396 15.77375,30.169356 C15.9345182,30.9351032 15.6367285,31.3132732 15.6456733,31.7221472 L17.2120807,31.6673056 C17.3205612,31.4931045 17.6007641,31.089348 17.885044,31.057504 C17.9274517,31.0527794 17.9678364,31.0525254 18.0062585,31.0560823 L18.115697,31.0775254 C18.4080494,31.1665132 18.5642457,31.4810215 18.6207921,31.6215224 L19.0557715,31.6073232 C19.0568267,31.6039033 19.0579038,31.6004469 19.0590031,31.5969557 C19.072256,31.5543767 19.0891647,31.5059492 19.1099014,31.4553101 C19.1153236,31.4425984 19.1206353,31.430084 19.1261826,31.417484 C19.1347465,31.3974642 19.144216,31.3770649 19.1543162,31.3566318 C19.1614757,31.3427466 19.1685626,31.3290006 19.1759429,31.315297 C19.1815145,31.3043264 19.1878742,31.2928946 19.1944435,31.281525 C19.2040708,31.2655137 19.2136341,31.2498234 19.2236165,31.2343443 C19.2345473,31.2167118 19.2466267,31.199082 19.2592857,31.1818714 C19.2691328,31.1691736 19.2787392,31.1567935 19.2886652,31.144694 C19.3003048,31.1297983 19.3130157,31.1152851 19.3262272,31.1013002 C19.3383771,31.08914 19.3506121,31.0770549 19.3632587,31.0654668 C19.3776987,31.0515445 19.3926621,31.0389709 19.4081771,31.0271539 C19.4433237,31.0010984 19.4810967,30.9783234 19.52185,30.960638 L19.444297,31.0017107 C19.4629095,30.9896365 19.4822515,30.9786487 19.5023462,30.968908 L19.52185,30.960638 C19.29911,30.486298 18.65679,30.031938 18.59759,29.895038 C18.02631,29.037378 18.61831,25.821338 20.07833,23.278698 C20.58079,22.688918 21.36223,22.207178 22.04673,21.395398 C22.05709,21.383558 22.06597,21.375418 22.07633,21.365058 Z M44.9091634,19.6244772 C45.1040844,19.1664449 46.8221806,19.1465345 47.5943366,19.2035267 C47.6515633,19.2078465 47.7042616,19.2124447 47.751148,19.217504 C47.751148,19.217504 47.549128,22.206364 46.075788,23.841764 C44.859228,25.193004 44.415228,27.593564 44.333088,29.005484 C44.2531601,28.6713382 44.1891017,28.3371793 44.1385477,28.007639 C44.1280325,27.936254 44.1178484,27.8656303 44.1082688,27.795268 C43.8242595,25.7264034 44.0599976,23.8816711 44.217648,23.431064 C44.2193227,23.426275 44.2209925,23.421492 44.2226573,23.4167149 C44.3511065,23.027836 44.4526832,22.6891895 44.5331942,22.3896948 C44.9179227,20.8522435 44.7207868,20.1321489 44.891788,19.694804 L44.891788,19.694804 L44.9091634,19.6244772 Z M14.706818,22.214578 C15.197438,22.697058 15.801278,23.790038 15.228518,25.208618 C14.628378,26.694538 14.248018,27.137798 14.361238,28.247798 C14.268738,28.176018 14.173278,28.102018 14.071898,28.025798 C13.346698,27.331678 13.673778,26.738938 14.316838,25.146458 C14.882938,23.744898 14.926598,22.921278 14.706818,22.214578 Z M23.308948,20.057034 C24.524768,21.226234 27.220588,23.776274 33.809548,23.574994 C38.112648,23.019254 38.853388,22.923794 40.209808,22.738794 C40.240888,22.305894 40.354848,21.675414 40.687848,20.919134 C40.810688,22.185274 40.851388,22.634454 41.096328,23.206474 C41.0975613,23.223494 41.0982191,23.242734 41.098548,23.2638651 L41.098548,23.410714 C39.279628,23.638634 38.293208,23.999014 33.990848,24.554014 C27.387088,24.756034 24.983568,21.977334 23.308948,20.057034 Z M56.06712,13.038652 C58.46176,12.528052 59.90254,15.460672 64.09168,14.891612 C64.26114,14.868672 64.35734,14.840552 64.55788,14.834632 C58.80216,16.268012 58.84656,13.065292 56.28838,13.874852 C55.17098,16.012712 54.96748,15.781832 54.06616,16.224352 C53.5156,16.494452 51.51538,18.550172 50.63552,19.363432 C50.42166,21.611552 49.04378,22.824412 48.25198,23.700572 L48.258,23.692148 L48.2756857,23.6707082 C48.437183,23.4645694 49.3765706,22.2219989 49.6244687,20.9047366 L49.65502,20.716152 C49.20584,21.043232 48.8388,21.206032 48.31488,21.379192 C48.98458,20.819012 49.68462,19.838512 49.96138,19.450012 C50.36986,18.878732 53.05754,16.156272 53.90262,15.733732 C54.80098,15.284552 54.94972,15.175772 56.06712,13.038652 Z M58.360898,0.000148 C58.778998,0.032708 59.581158,1.865688 58.545158,2.675248 C58.497798,2.704108 58.455618,2.734448 58.413438,2.764048 C58.696858,2.300068 58.582158,1.658488 58.429718,1.164168 C58.306878,0.766048 58.032338,0.845228 57.815518,0.995448 C57.363378,1.311428 56.798758,1.690308 56.592298,2.726308 C56.349578,3.937688 56.749178,4.977388 57.380398,4.880448 C57.851778,4.807928 57.557258,4.173748 57.769638,3.576568 C58.286898,3.655008 58.669478,3.923628 58.986938,4.259588 C58.984718,4.252928 58.981758,4.246268 58.978798,4.239608 C60.537978,6.065928 62.481218,6.347868 63.322598,5.237868 C63.807298,4.599248 65.244378,1.984828 65.823058,0.087468 C66.504598,3.182888 65.635838,6.723788 65.569978,6.985008 C65.746838,7.039768 65.908158,7.100448 66.053198,7.166308 C66.150138,7.143368 69.097558,6.410028 73.445058,0.056388 C72.412758,4.897468 70.035138,7.698368 69.039098,8.803928 C68.680198,9.202788 68.277638,9.694888 68.454498,10.855208 C68.581778,11.537488 68.480398,12.276008 68.362738,12.836188 C68.298358,13.576188 67.932058,14.370948 67.157278,14.313968 C67.032218,14.638088 66.600798,15.304828 65.214778,14.957768 C66.521618,14.978488 66.654078,14.305088 66.694778,14.222948 C66.960438,14.202228 67.284558,13.976528 67.236458,13.814468 C66.235978,13.733068 64.081838,12.436588 63.827278,13.366028 C62.550038,12.742208 60.611238,13.043388 58.935878,12.038468 C57.006698,10.880368 58.295778,8.766928 56.301478,7.383868 C56.784698,8.413208 56.140898,8.895688 55.768678,10.693888 C55.022758,9.363368 54.503278,6.996108 55.022018,5.277828 C54.948018,5.092088 54.029678,6.174708 53.878718,7.360928 C53.552378,9.933908 54.164358,9.893208 54.157698,12.519468 C53.265998,8.422828 50.243838,8.422828 47.875838,6.054088 C48.610658,7.565168 49.794658,8.708468 51.102238,10.750128 C52.409078,12.792528 51.509978,14.834928 49.917498,17.202928 C50.162438,17.979188 49.958198,18.708088 49.591158,18.509768 C49.059838,18.224128 48.590678,18.142728 48.161478,18.060588 C47.303818,17.897048 43.710378,18.183428 42.525638,19.286028 C43.615658,16.482168 47.426658,17.734248 48.682438,16.570228 C47.314178,16.580588 46.007338,16.417048 45.466398,16.018928 C45.131178,15.047308 45.624018,12.168708 44.445198,11.404288 C43.417338,14.424228 41.361618,14.854908 40.320438,19.633088 C39.830558,16.753748 41.882578,13.349008 41.645038,12.740728 C40.349298,14.837888 39.269638,15.177548 38.437138,17.120048 C33.925358,19.343748 25.291778,15.936788 22.777998,12.984928 C23.015538,14.701728 23.244198,16.770768 24.475558,18.469068 C23.112478,17.915548 21.774558,15.132408 21.514078,13.201008 C21.300218,11.608528 21.667258,10.842628 20.687498,10.658368 C19.706998,10.474848 20.068118,12.041428 20.197618,12.924988 C20.657158,16.057408 23.331518,17.530008 18.186298,21.449788 C19.248198,16.876588 16.174978,16.192088 17.794098,10.579928 C16.686318,10.790828 15.450518,11.504928 14.580278,13.062628 C14.048218,11.791308 14.496658,9.912448 15.269218,8.475368 C12.915278,10.587328 11.689838,14.181508 13.650098,19.898748 C13.904658,20.640968 14.097798,21.048708 14.251718,21.335088 C13.649358,20.416008 12.500878,18.569708 11.951058,14.886728 L11.951,14.887148 L11.8738792,15.0471577 C11.5306359,15.8421258 11.4187272,17.2693777 11.3026755,18.6626358 L11.277658,18.960428 C11.191818,19.963128 11.243618,22.716668 9.160518,22.757368 C9.977478,21.941148 9.012518,20.919208 10.511758,18.929348 C10.804798,17.597348 11.003858,13.822608 11.621758,12.170188 C12.239658,10.517768 14.091878,8.593028 16.912758,6.555808 C18.567398,5.360708 21.782698,5.014388 23.350758,4.873788 C28.305058,4.429788 31.520358,6.327148 34.892538,5.912008 C36.742538,5.665588 42.770578,2.021828 45.162998,2.420688 C47.480678,2.806968 49.883458,2.421428 53.968998,3.085208 C54.202838,3.122948 55.372778,3.299068 55.857478,3.381208 C55.828618,3.232468 55.814558,3.074848 55.818998,2.909828 C55.866358,1.005808 58.007178,0.578828 58.360898,0.000148 Z M67.721158,11.746908 C67.516178,11.751348 67.240898,11.807588 66.876078,11.945228 C66.842778,12.011088 66.725858,12.237528 67.297138,12.660808 C67.513218,12.820648 67.753718,12.984188 67.848438,12.972348 C68.094858,12.942008 68.043058,12.553508 68.109658,12.237528 C68.145178,12.066588 68.290958,11.736548 67.721158,11.746908 Z M62.962958,8.736588 C62.347278,8.659628 62.282158,9.162828 61.795978,9.390008 C62.347278,9.759268 62.940018,9.801448 63.139078,9.464008 C63.210118,9.458088 63.345538,9.491388 63.453578,9.531348 C63.583078,9.578708 63.583818,9.430708 63.564578,9.347828 C63.509078,9.098448 63.348498,8.785428 62.962958,8.736588 Z M70.243818,6.320488 C68.926618,7.239568 67.946858,7.545928 66.801338,7.833788 C67.194278,8.230428 67.733738,8.881628 68.130378,9.414428 C68.498158,8.311828 69.508998,7.912968 70.243818,6.320488 Z M65.088238,4.217408 C63.944938,6.259808 63.087278,6.586148 62.003178,6.405588 C62.163018,6.505488 62.322118,6.590588 62.476778,6.663108 C62.959258,6.887328 63.403998,6.987228 63.750318,7.030888 C64.079618,7.071588 64.485878,7.147808 64.883998,7.024968 C64.900278,6.928768 65.292478,5.524248 65.088238,4.217408 Z" id="gold-rhino-white"></path>
        </g>
    </g>
</svg>