<?xml version="1.0" encoding="UTF-8"?>
<svg width="534px" height="43px" viewBox="0 0 213 17" version="1.1" xmlns="http://www.w3.org/2000/svg" xmlns:xlink="http://www.w3.org/1999/xlink">
    <title>Group 13</title>
    <g id="🗄-Symbols" stroke="none" stroke-width="1" fill="none" fill-rule="evenodd">
        <g id="Logos-/-Rhinolabs-(Colour-Inverted)" transform="translate(-9.000000, -8.000000)">
            <g id="Group-13" transform="translate(9.000000, 8.000000)">
                <path d="M10.7997925,8.33973289 C13.1089212,8.33973289 14.6773859,7.60825735 14.6773859,5.62135611 C14.6773859,3.6313728 13.1089212,2.89989726 10.7997925,2.89989726 L2.74585062,2.89989726 L2.74585062,8.33973289 L10.7997925,8.33973289 Z M14.5850622,16.5 L9.57676349,10.6944266 L2.76970954,10.6944266 L2.76970954,16.5 L0,16.5 L0,0.5 L10.9854772,0.5 C14.746888,0.5 17.5165975,2.28245794 17.5165975,5.59772698 C17.5165975,8.36233466 15.5767635,10.0533582 12.7624481,10.5567613 L18,16.5 L14.5850622,16.5 Z" id="Fill-1" fill="#B28F64"></path>
                <polygon id="Fill-3" fill="#B28F64" points="44 0.5 44 16.5 41.2688216 16.5 41.2688216 9.61981508 29.2311784 9.61981508 29.2311784 16.5 26.5 16.5 26.5 0.5 29.2311784 0.5 29.2311784 7.15108514 41.2688216 7.15108514 41.2688216 0.5"></polygon>
                <polygon id="Fill-5" fill="#B28F64" points="53.5 16.5 56.5 16.5 56.5 0.5 53.5 0.5"></polygon>
                <polygon id="Fill-7" fill="#B28F64" points="84 0.5 84 16.5 81.5879705 16.5 69.1391162 3.88307435 69.1391162 16.5 66.5 16.5 66.5 0.5 69.412234 0.5 81.3363339 12.6371517 81.3363339 0.5"></polygon>
                <path d="M109.672677,8.5 C109.672677,4.60528229 106.868089,2.4282772 102.5,2.4282772 C98.1319107,2.4282772 95.3045882,4.60528229 95.3045882,8.5 C95.3045882,12.3947177 98.1091764,14.5717228 102.5,14.5717228 C106.868089,14.5717228 109.672677,12.3947177 109.672677,8.5 M92.5,8.5 C92.5,3.20783862 96.315232,0 102.5,0 C108.684768,0 112.5,3.20783862 112.5,8.5 C112.5,13.7931912 108.684768,17 102.5,17 C96.315232,17 92.5,13.7931912 92.5,8.5" id="Fill-8" fill="#B28F64"></path>
                <polygon id="Fill-9" fill="#F8F7F1" points="135.5 15.3791576 135.5 16.5 121.5 16.5 121.5 0.5 122.702467 0.5 122.702467 15.3791576"></polygon>
                <path d="M157.868594,10.6714506 L152.727098,1.59625634 L147.609545,10.6714506 L157.868594,10.6714506 Z M158.470291,11.7687343 L147.005766,11.7687343 L144.342889,16.5 L143,16.5 L152.078555,0.5 L153.422486,0.5 L162.5,16.5 L161.157111,16.5 L158.470291,11.7687343 Z" id="Fill-10" fill="#F8F7F1"></path>
                <path d="M186.279772,12.0890059 C186.279772,9.75764192 184.493627,8.84318007 181.487254,8.84318007 L172.174507,8.84318007 L172.174507,15.4036733 L181.487254,15.4036733 C184.493627,15.4036733 186.279772,14.4213974 186.279772,12.0890059 L186.279772,12.0890059 Z M172.174507,7.74582584 L181.305388,7.74582584 C183.634083,7.74582584 185.397876,6.80875931 185.397876,4.61507835 C185.397876,2.42036989 183.634083,1.57474955 181.305388,1.57474955 L172.174507,1.57474955 L172.174507,7.74582584 Z M187.5,12.1578474 C187.5,15.10673 185.262746,16.5 181.668103,16.5 L171,16.5 L171,0.5 L181.442549,0.5 C184.357482,0.5 186.596767,1.82545595 186.596767,4.47739532 C186.596767,6.37413306 185.375523,8.0201644 183.137254,8.22566144 C185.534021,8.36334446 187.5,9.34664783 187.5,12.1578474 L187.5,12.1578474 Z" id="Fill-11" fill="#F8F7F1"></path>
                <path d="M213,12.0507633 C213,14.8466804 210.071842,17 204.751433,17 C200.98442,17 197.614374,15.8311728 195.5,13.5635449 L196.383775,12.7160165 C198.382193,14.8919918 201.333333,15.8775139 204.795308,15.8775139 C209.281041,15.8775139 211.768356,14.2967652 211.768356,12.1197601 C211.768356,9.89744366 209.049128,9.27853162 204.377447,8.84395445 C200.171681,8.45365883 196.080826,7.58347468 196.080826,4.55894112 C196.080826,1.62606009 199.985733,0 204.168517,0 C207.701528,0 210.443738,1.12248607 212.140252,2.81857281 L211.18753,3.59710443 C209.561008,1.87939181 207.09772,1.14617155 204.215527,1.12248607 C201.077394,1.09983039 197.336497,2.17700509 197.336497,4.53628544 C197.336497,6.75860189 200.729525,7.35382845 204.795308,7.72043858 C209.653982,8.13338987 213,9.04991519 213,12.0507633" id="Fill-12" fill="#F8F7F1"></path>
            </g>
        </g>
    </g>
</svg>