<?xml version="1.0" encoding="UTF-8"?>
<svg width="348px" height="158px" viewBox="0 0 174 79" version="1.1" xmlns="http://www.w3.org/2000/svg" xmlns:xlink="http://www.w3.org/1999/xlink">
    <g id="⇢---Desktop" stroke="none" stroke-width="1" fill="none" fill-rule="evenodd">
        <g id="05---Our-vision" transform="translate(-773.000000, -3583.000000)">
            <g id="TARP" transform="translate(774.000000, 3585.000000)">
                <g id="Group-4" transform="translate(0.000000, 3.896407)" stroke="#1C2936" stroke-linecap="round" stroke-width="2.45">
                    <path d="M26.7320163,71.25 L8.96637398,71.25 C2.90092683,70.3612222 0.943203252,67.7434444 0.524390244,59.443963" id="Stroke-1"></path>
                    <path d="M0.524390244,59.367963 C0.720162602,57.4841481 2.39611382,54.993037 2.94357724,54.5630741 C3.11627642,54.4272593 3.29876423,54.3012963 3.4882439,54.1872963 C4.59156098,53.3294815 5.36695935,52.086037 5.68439024,50.692 C5.89904065,50.6547037 6.11369106,50.6181111 6.33043902,50.5948889 C9.09082927,50.2979259 12.1336911,51.7658519 14.1026016,53.3442593 C19.7366504,57.8599259 25.908374,60.2166296 32.4101138,60.2166296 C33.079935,60.2166296 33.6980163,59.9921481 34.2042276,59.6142593 L34.2063252,59.6121481 C35.0998862,60.4136667 36.2598374,60.8971111 37.5281626,60.8971111 L37.5239675,60.9006296 C38.1014959,60.9006296 38.6566504,60.8007037 39.1740488,60.6156296 C41.7386667,59.6994074 44.2130894,58.3081852 46.4001463,56.4215556 C46.6497561,56.2062222 46.8944715,55.9824444 47.1370894,55.7558519 C47.453122,55.4595926 47.7649593,55.1562963 48.0677073,54.8389259 C49.0304878,53.8298148 49.4625854,52.4618148 49.5373984,51.1824815 C49.5457886,51.045963 49.5527805,50.9094444 49.5527805,50.775037 C49.5527805,47.9693704 48.8990407,45.3234444 47.7446829,42.9941852 C57.3305366,37.5658148 64.4014146,27.9665926 66.7380976,16.4821481 C66.7898374,16.2252963 66.5821789,16.0557037 66.3794146,16.0557037 C66.2521626,16.0557037 66.1402927,16.1225556 66.0738699,16.2252963 C60.5118374,25.6070741 50.9224878,31.9495556 39.7900325,32.725037 C41.1898049,29.6716667 41.9749919,26.2495556 41.9749919,22.6367407 C41.9749919,21.8668889 41.8994797,20.8964815 41.8414472,20.5150741 C41.7757236,20.083 41.642878,19.9697037 41.343626,19.9697037 C41.1863089,19.9697037 41.044374,20.0400741 40.9450894,20.151963 C38.558065,23.2384074 35.4921301,25.6056667 31.9213821,27.1165185 C27.1585203,22.7289259 23.4129756,17.1633333 21.088878,10.8546296 C22.6117073,10.4816667 24.0590244,9.67662963 25.2469431,8.43248148 C26.2083252,7.42548148 26.8921301,6.23974074 27.3074472,4.9787037 L27.3158374,4.97588889 C27.7458374,3.70148148 28.5324228,2.6037037 29.5483415,1.81062963 C28.9659187,1.4432963 28.3555285,1.14703704 27.725561,0.920444444 C24.3617724,-0.288518519 20.4882764,0.501740741 17.8047967,3.31233333 C16.911935,4.24685185 16.235122,5.32 15.7694634,6.46562963 C11.1862927,5.187 5.60747967,4.60222222 0.589414634,4.25107407" id="Stroke-3" stroke-linejoin="round"></path>
                </g>
                <polyline id="Fill-5" fill="#1C2936" points="78.4306016 11.4457407 86.4901301 11.4457407 86.4901301 12.6624444 83.3249106 12.6624444 83.3249106 19.4883704 81.5818374 19.4883704 81.5818374 12.6624444 78.4306016 12.6624444 78.4306016 11.4457407"></polyline>
                <polyline id="Fill-6" fill="#1C2936" points="87.6053333 11.4457407 89.3477073 11.4457407 89.3477073 14.6447778 93.8798374 14.6447778 93.8798374 11.4457407 95.6229106 11.4457407 95.6229106 19.4883704 93.8798374 19.4883704 93.8798374 15.8614815 89.3477073 15.8614815 89.3477073 19.4883704 87.6053333 19.4883704 87.6053333 11.4457407"></polyline>
                <polyline id="Fill-7" fill="#1C2936" points="97.7141789 11.4457407 104.881545 11.4457407 104.881545 12.6624444 99.457252 12.6624444 99.457252 14.7686296 104.476715 14.7686296 104.476715 15.9177778 99.457252 15.9177778 99.457252 18.2716667 104.979431 18.2716667 104.979431 19.4883704 97.7141789 19.4883704 97.7141789 11.4457407"></polyline>
                <path d="M81.4287154,28.8617037 L84.4680813,28.8617037 L82.9767154,25.4037037 L82.9347642,25.4037037 L81.4287154,28.8617037 Z M82.0419024,24.0181111 L83.8968455,24.0181111 L87.731187,32.0607407 L85.8629593,32.0607407 L84.9288455,29.932037 L80.9546667,29.932037 L80.0205528,32.0607407 L78.2215447,32.0607407 L82.0419024,24.0181111 L82.0419024,24.0181111 Z" id="Fill-8" fill="#1C2936"></path>
                <path d="M88.5674146,24.0181111 L90.3104878,24.0181111 L90.3104878,28.7040741 C90.3104878,29.7856667 90.3943902,31.0361481 92.6534634,31.0361481 C94.9118374,31.0361481 94.9957398,29.7856667 94.9957398,28.7040741 L94.9957398,24.0181111 L96.738813,24.0181111 L96.738813,29.1657037 C96.738813,31.2268519 95.1076098,32.2521481 92.6534634,32.2521481 C90.1986179,32.2521481 88.5674146,31.2268519 88.5674146,29.1657037 L88.5674146,24.0181111" id="Fill-9" fill="#1C2936"></path>
                <path d="M99.8900488,29.3796296 C99.8900488,30.6188519 101.019236,31.1037037 102.413415,31.1037037 C103.947431,31.1037037 104.519366,30.495 104.519366,29.887 C104.519366,29.267037 104.100553,29.0193333 103.696423,28.8954815 C102.999333,28.6815556 102.093187,28.5351852 100.726276,28.2311852 C99.0251545,27.8596296 98.5231382,27.0257407 98.5231382,26.1925556 C98.5231382,24.5817778 100.363398,23.8267037 102.163106,23.8267037 C104.24039,23.8267037 105.982764,24.7168889 105.982764,26.3952222 L104.24039,26.3952222 C104.156488,25.3586667 103.292293,24.9758519 102.093187,24.9758519 C101.284228,24.9758519 100.266211,25.2122963 100.266211,26.022963 C100.266211,26.5866296 100.74026,26.9018889 101.451333,27.0595185 C101.605154,27.0932963 103.807593,27.5556296 104.323593,27.6794815 C105.634569,27.9947407 106.262439,28.8954815 106.262439,29.7293704 C106.262439,31.5315556 104.282341,32.2521481 102.302244,32.2521481 C100.029187,32.2521481 98.1882276,31.3739259 98.1462764,29.3796296 L99.8900488,29.3796296" id="Fill-10" fill="#1C2936"></path>
                <polyline id="Fill-11" fill="#1C2936" points="106.832976 24.0181111 114.893203 24.0181111 114.893203 25.2348148 111.727285 25.2348148 111.727285 32.0607407 109.984211 32.0607407 109.984211 25.2348148 106.832976 25.2348148 106.832976 24.0181111"></polyline>
                <path d="M117.793431,27.6794815 L120.651707,27.6794815 C121.752927,27.6794815 122.352829,27.2396667 122.352829,26.3952222 C122.352829,25.3699259 121.530585,25.1672593 120.62374,25.1672593 L117.793431,25.1672593 L117.793431,27.6794815 Z M116.050358,24.0181111 L120.805528,24.0181111 C122.98,24.0181111 124.095902,24.8294815 124.095902,26.1925556 C124.095902,27.7357778 122.770943,28.1298519 122.450016,28.2199259 L122.450016,28.2424444 C123.050618,28.31 123.928098,28.6702963 123.928098,29.9432963 C123.928098,30.8778148 124.095902,31.7342222 124.472764,32.0607407 L122.603837,32.0607407 C122.338846,31.7117037 122.338846,31.2718889 122.338846,30.8778148 C122.338846,29.4028519 121.962683,28.7491111 120.358748,28.7491111 L117.793431,28.7491111 L117.793431,32.0607407 L116.050358,32.0607407 L116.050358,24.0181111 L116.050358,24.0181111 Z" id="Fill-12" fill="#1C2936"></path>
                <path d="M127.91626,28.8617037 L130.955626,28.8617037 L129.463561,25.4037037 L129.422309,25.4037037 L127.91626,28.8617037 Z M128.529447,24.0181111 L130.38439,24.0181111 L134.218732,32.0607407 L132.349805,32.0607407 L131.415691,29.932037 L127.442211,29.932037 L126.508098,32.0607407 L124.709089,32.0607407 L128.529447,24.0181111 L128.529447,24.0181111 Z" id="Fill-13" fill="#1C2936"></path>
                <polyline id="Fill-14" fill="#1C2936" points="135.166829 24.0181111 136.909902 24.0181111 136.909902 30.8447407 141.971317 30.8447407 141.971317 32.0607407 135.166829 32.0607407 135.166829 24.0181111"></polyline>
                <polygon id="Fill-15" fill="#1C2936" points="143.170423 32.0607407 144.913496 32.0607407 144.913496 24.0181111 143.170423 24.0181111"></polygon>
                <path d="M149.096732,28.8617037 L152.136098,28.8617037 L150.644033,25.4037037 L150.602081,25.4037037 L149.096732,28.8617037 Z M149.70922,24.0181111 L151.564163,24.0181111 L155.399203,32.0607407 L153.530276,32.0607407 L152.596163,29.932037 L148.621984,29.932037 L147.68787,32.0607407 L145.889561,32.0607407 L149.70922,24.0181111 L149.70922,24.0181111 Z" id="Fill-16" fill="#1C2936"></path>
                <polyline id="Fill-17" fill="#1C2936" points="156.277382 24.0181111 158.117642 24.0181111 162.663756 29.9432963 162.691724 29.9432963 162.691724 24.0181111 164.350894 24.0181111 164.350894 32.0607407 162.509935 32.0607407 157.978504 26.1475185 157.936553 26.1475185 157.936553 32.0607407 156.277382 32.0607407 156.277382 24.0181111"></polyline>
                <path d="M81.1217724,40.2511481 L83.980748,40.2511481 C85.0819675,40.2511481 85.6818699,39.812037 85.6818699,38.9675926 C85.6818699,37.9422963 84.8589268,37.7396296 83.9527805,37.7396296 L81.1217724,37.7396296 L81.1217724,40.2511481 Z M79.3786992,36.5904815 L84.1338699,36.5904815 C86.3090407,36.5904815 87.4242439,37.4011481 87.4242439,38.7642222 C87.4242439,40.3074444 86.0999837,40.7015185 85.7790569,40.7922963 L85.7790569,40.8141111 C86.3782602,40.8823704 87.2571382,41.241963 87.2571382,42.514963 C87.2571382,43.4501852 87.4242439,44.3058889 87.8011057,44.6331111 L85.932878,44.6331111 C85.6678862,44.2840741 85.6678862,43.8442593 85.6678862,43.4501852 C85.6678862,41.9745185 85.2910244,41.3214815 83.6877886,41.3214815 L81.1217724,41.3214815 L81.1217724,44.6331111 L79.3786992,44.6331111 L79.3786992,36.5904815 L79.3786992,36.5904815 Z" id="Fill-18" fill="#1C2936"></path>
                <polyline id="Fill-19" fill="#1C2936" points="89.1533333 36.5904815 90.8957073 36.5904815 90.8957073 39.7895185 95.4278374 39.7895185 95.4278374 36.5904815 97.1709106 36.5904815 97.1709106 44.6331111 95.4278374 44.6331111 95.4278374 41.0055185 90.8957073 41.0055185 90.8957073 44.6331111 89.1533333 44.6331111 89.1533333 36.5904815"></polyline>
                <polygon id="Fill-20" fill="#1C2936" points="99.2621789 44.6331111 101.005252 44.6331111 101.005252 36.5904815 99.2621789 36.5904815"></polygon>
                <polyline id="Fill-21" fill="#1C2936" points="103.068553 36.5904815 104.908813 36.5904815 109.454927 42.514963 109.482894 42.514963 109.482894 36.5904815 111.142065 36.5904815 111.142065 44.6331111 109.301805 44.6331111 104.769675 38.7191852 104.727724 38.7191852 104.727724 44.6331111 103.068553 44.6331111 103.068553 36.5904815"></polyline>
                <path d="M114.419154,40.6114444 C114.419154,42.1546667 115.311317,43.6753704 117.444537,43.6753704 C119.578455,43.6753704 120.470618,42.1546667 120.470618,40.6114444 C120.470618,39.0689259 119.578455,37.5482222 117.444537,37.5482222 C115.311317,37.5482222 114.419154,39.0689259 114.419154,40.6114444 Z M122.212992,40.6114444 C122.212992,42.9097407 120.428667,44.8238148 117.444537,44.8238148 C114.460407,44.8238148 112.676081,42.9097407 112.676081,40.6114444 C112.676081,38.3138519 114.460407,36.3990741 117.444537,36.3990741 C120.428667,36.3990741 122.212992,38.3138519 122.212992,40.6114444 L122.212992,40.6114444 Z" id="Fill-22" fill="#1C2936"></path>
                <path d="M81.1217724,52.9698889 L83.6738049,52.9698889 C84.4540976,52.9698889 85.4161789,52.6546296 85.4161789,51.6412963 C85.4161789,50.5822222 84.6219024,50.312 83.7017724,50.312 L81.1217724,50.312 L81.1217724,52.9698889 Z M79.3786992,49.1628519 L83.7709919,49.1628519 C86.6152846,49.1628519 87.1599512,50.6497778 87.1599512,51.6518519 C87.1599512,52.6440741 86.6152846,54.1302963 83.7709919,54.119037 L81.1217724,54.119037 L81.1217724,57.2054815 L79.3786992,57.2054815 L79.3786992,49.1628519 L79.3786992,49.1628519 Z" id="Fill-23" fill="#1C2936"></path>
                <path d="M90.4223577,52.8235185 L93.2806341,52.8235185 C94.3825528,52.8235185 94.9817561,52.3844074 94.9817561,51.5392593 C94.9817561,50.5146667 94.158813,50.312 93.2526667,50.312 L90.4223577,50.312 L90.4223577,52.8235185 Z M88.6785854,49.1628519 L93.4337561,49.1628519 C95.6089268,49.1628519 96.7248293,49.9742222 96.7248293,51.3365926 C96.7248293,52.8805185 95.4005691,53.2738889 95.0796423,53.3646667 L95.0796423,53.3864815 C95.6788455,53.4547407 96.5577236,53.815037 96.5577236,55.0873333 C96.5577236,56.0225556 96.7248293,56.8782593 97.1009919,57.2054815 L95.2327642,57.2054815 C94.9684715,56.8564444 94.9684715,56.4166296 94.9684715,56.0225556 C94.9684715,54.5475926 94.5909106,53.8938519 92.9876748,53.8938519 L90.4223577,53.8938519 L90.4223577,57.2054815 L88.6785854,57.2054815 L88.6785854,49.1628519 L88.6785854,49.1628519 Z" id="Fill-24" fill="#1C2936"></path>
                <path d="M99.7089593,53.1838148 C99.7089593,54.7277407 100.601122,56.2484444 102.734341,56.2484444 C104.86826,56.2484444 105.760423,54.7277407 105.760423,53.1838148 C105.760423,51.6412963 104.86826,50.1205926 102.734341,50.1205926 C100.601122,50.1205926 99.7089593,51.6412963 99.7089593,53.1838148 Z M107.502797,53.1838148 C107.502797,55.4821111 105.718472,57.3961852 102.734341,57.3961852 C99.7502114,57.3961852 97.9658862,55.4821111 97.9658862,53.1838148 C97.9658862,50.8869259 99.7502114,48.9714444 102.734341,48.9714444 C105.718472,48.9714444 107.502797,50.8869259 107.502797,53.1838148 L107.502797,53.1838148 Z" id="Fill-25" fill="#1C2936"></path>
                <path d="M114.460407,54.6144444 C114.460407,56.0112963 114.042992,57.3961852 111.184016,57.3961852 C109.078065,57.3961852 108.21387,56.2815185 108.21387,54.8171111 L108.21387,54.3892593 L109.956943,54.3892593 L109.956943,54.8065556 C109.956943,55.7185556 110.263187,56.2484444 111.323154,56.2484444 C112.452341,56.2484444 112.717333,55.6953333 112.717333,54.693963 L112.717333,49.1628519 L114.460407,49.1628519 L114.460407,54.6144444" id="Fill-26" fill="#1C2936"></path>
                <polyline id="Fill-27" fill="#1C2936" points="116.580341 49.1628519 123.747707 49.1628519 123.747707 50.3795556 118.323415 50.3795556 118.323415 52.4857407 123.342878 52.4857407 123.342878 53.6348889 118.323415 53.6348889 118.323415 55.9887778 123.844894 55.9887778 123.844894 57.2054815 116.580341 57.2054815 116.580341 49.1628519"></polyline>
                <path d="M132.084813,51.7201111 C131.791854,50.7961481 131.053512,50.1205926 129.603398,50.1205926 C127.470179,50.1205926 126.577317,51.6412963 126.577317,53.1838148 C126.577317,54.7277407 127.470179,56.2484444 129.603398,56.2484444 C131.151398,56.2484444 132.00161,55.3132222 132.141447,54.1415556 L133.84187,54.1415556 C133.702732,56.0675926 132.015593,57.3961852 129.603398,57.3961852 C126.619268,57.3961852 124.834244,55.4821111 124.834244,53.1838148 C124.834244,50.8869259 126.619268,48.9714444 129.603398,48.9714444 C131.848488,48.9827037 133.619528,49.9847778 133.828585,51.7201111 L132.084813,51.7201111" id="Fill-28" fill="#1C2936"></path>
                <polyline id="Fill-29" fill="#1C2936" points="134.483024 49.1628519 142.542553 49.1628519 142.542553 50.3795556 139.377333 50.3795556 139.377333 57.2054815 137.63426 57.2054815 137.63426 50.3795556 134.483024 50.3795556 134.483024 49.1628519"></polyline>
                <path d="M0.524390244,7.73722222 C1.8598374,2.25466667 4.48178862,0.399 8.91463415,0 L163.193041,0 C167.806976,0 171.583285,3.98225926 171.583285,8.84907407 L171.583285,66.2973333 C171.583285,71.1641481 167.806976,75.1464074 163.193041,75.1464074 L145.717561,75.1464074 M22.4061463,75.1428889 L150.007772,75.1428889" id="Stroke-30" stroke="#1C2936" stroke-width="2.45" stroke-linecap="round"></path>
            </g>
        </g>
    </g>
</svg>